<?xml version="1.0" standalone="no"?>
<!DOCTYPE svg PUBLIC "-//W3C//DTD SVG 1.1//EN" "http://www.w3.org/Graphics/SVG/1.1/DTD/svg11.dtd" >
<svg xmlns="http://www.w3.org/2000/svg">
<metadata>Generated by IcoMoon</metadata>
<defs>
<font id="big_mug" horiz-adv-x="1024">
<font-face units-per-em="1024" ascent="960" descent="-64" />
<missing-glyph horiz-adv-x="1024" />
<glyph unicode="&#x20;" d="" horiz-adv-x="512" />
<glyph unicode="&#xe800;" d="M896 576h-256v256c0 70.656-57.344 128-128 128s-128-57.344-128-128v-256h-256c-70.656 0-128-57.344-128-128s57.344-128 128-128h256v-256c0-70.656 57.344-128 128-128s128 57.344 128 128v256h256c70.656 0 128 57.344 128 128s-57.344 128-128 128zM896 384.512h-319.488v-320.512c0-35.84-28.672-64.512-64.512-64.512s-63.488 28.672-63.488 64.512v320.512h-320.512c-34.816 0-63.488 28.672-63.488 63.488 0 35.84 28.672 64.512 63.488 64.512h320.512v319.488c0 35.84 28.672 64.512 63.488 64.512s64.512-28.672 64.512-64.512v-319.488h319.488c35.84 0 64.512-28.672 64.512-64.512 0-34.816-28.672-63.488-64.512-63.488z" />
<glyph unicode="&#xe801;" d="M512 960c-282.624 0-512-229.376-512-512s229.376-512 512-512c282.624 0 512 229.376 512 512s-229.376 512-512 512zM512-0.512c-247.808 0-447.488 200.704-447.488 448.512s199.68 448.512 447.488 448.512 448.512-200.704 448.512-448.512-200.704-448.512-448.512-448.512zM704.512 479.744h-160.768v160.768c0 17.408-14.336 31.744-31.744 31.744s-31.744-14.336-31.744-31.744v-160.768h-159.744c-18.432 0-32.768-14.336-32.768-31.744s14.336-31.744 32.768-31.744h159.744v-159.744c0-18.432 14.336-32.768 31.744-32.768s31.744 14.336 31.744 32.768v159.744h160.768c17.408 0 31.744 14.336 31.744 31.744s-14.336 31.744-31.744 31.744z" />
<glyph unicode="&#xe802;" d="M704.512 479.744h-160.768v160.768c0 17.408-14.336 31.744-31.744 31.744s-31.744-14.336-31.744-31.744v-160.768h-159.744c-18.432 0-32.768-14.336-32.768-31.744s14.336-31.744 32.768-31.744h159.744v-159.744c0-18.432 14.336-32.768 31.744-32.768s31.744 14.336 31.744 32.768v159.744h160.768c17.408 0 31.744 14.336 31.744 31.744s-14.336 31.744-31.744 31.744zM896 960h-768c-70.656 0-128-57.344-128-128v-768c0-70.656 57.344-128 128-128h768c70.656 0 128 57.344 128 128v768c0 70.656-57.344 128-128 128zM960.512 64c0-35.84-28.672-64.512-64.512-64.512h-768c-34.816 0-63.488 28.672-63.488 64.512v768c0 35.84 28.672 64.512 63.488 64.512h768c35.84 0 64.512-28.672 64.512-64.512v-768z" />
<glyph unicode="&#xe803;" d="M998.4 934.4c-39.936 39.936-109.568 30.72-149.504-9.216l-203.776-203.776-378.88 141.312c-36.864 9.216-72.704 21.504-117.76-23.552-23.552-23.552-70.656-70.656 0-141.312l259.072-212.992-168.96-168.96-157.696 39.936c-22.528 6.144-38.912 1.024-51.2-12.288-5.12-7.168-49.152-39.936-18.432-70.656l183.296-142.336 142.336-183.296c21.504-22.528 41.984-8.192 70.656 18.432 17.408 17.408 14.336 26.624 8.192 53.248l-34.816 155.648 166.912 168.96 212.992-260.096c70.656-70.656 117.76-22.528 141.312 0 45.056 45.056 32.768 81.92 23.552 118.784l-140.288 378.88 202.752 203.776c39.936 39.936 50.176 109.568 10.24 149.504zM955.392 826.88l-238.592-238.592 144.384-397.312c7.168-22.528 3.072-51.2-6.144-60.416-26.624-25.6-45.056-13.312-55.296-2.048l-230.4 311.296-254.976-256 46.080-171.008c-18.432 18.432-123.904 160.768-126.976 162.816-2.048 2.048-141.312 105.472-155.648 120.832l163.84-44.032 260.096 254.976-310.272 229.376c-8.192 7.168-20.48 30.72 4.096 55.296 9.216 9.216 36.864 11.264 59.392 5.12l395.264-143.36 241.664 237.568c16.384 16.384 50.176 14.336 64.512 0 15.36-15.36 16.384-47.104-1.024-64.512z" />
<glyph unicode="&#xe804;" d="M736.256 479.744h-192.512v224.256c0 17.408-14.336 31.744-31.744 31.744s-31.744-14.336-31.744-31.744v-256c0-17.408 14.336-31.744 31.744-31.744h224.256c17.408 0 31.744 14.336 31.744 31.744s-14.336 31.744-31.744 31.744zM64.512 800.256c0 53.248 43.008 96.256 95.232 96.256h64.512v63.488h-64.512c-88.064 0-159.744-71.68-159.744-159.744v-64.512h64.512v64.512zM864.256 960h-64.512v-63.488h64.512c53.248 0 96.256-43.008 96.256-96.256v-64.512h63.488v64.512c0 88.064-71.68 159.744-159.744 159.744zM960.512 448c0 247.808-200.704 448.512-448.512 448.512s-447.488-200.704-447.488-448.512c0-169.984 94.208-317.44 233.472-393.216l-105.472-118.784h95.232l86.016 86.016c44.032-14.336 90.112-22.528 138.24-22.528s94.208 8.192 138.24 22.528l86.016-86.016h96.256l-105.472 118.784c138.24 75.776 233.472 223.232 233.472 393.216zM512 64c-211.968 0-384 172.032-384 384s172.032 384 384 384 384-172.032 384-384c0-211.968-172.032-384-384-384z" />
<glyph unicode="&#xe805;" d="M951.296 484.864v-402.432c0-39.936-33.792-73.728-73.728-73.728l-733.184-1.024c-39.936 0-72.704 32.768-72.704 71.68l1.024 734.208c0 39.936 33.792 73.728 73.728 73.728h402.432v72.704h-402.432c-79.872 0-146.432-80.896-146.432-160.768v-719.872c0-78.848 64.512-143.36 144.384-143.36h718.848c79.872 0 160.768 66.56 160.768 146.432v402.432h-72.704zM402.432 557.568c0 20.48-16.384 36.864-36.864 36.864s-35.84-16.384-36.864-36.864v-256c0-20.48 16.384-36.864 36.864-36.864h256c20.48 1.024 36.864 16.384 36.864 36.864s-16.384 36.864-36.864 36.864h-163.84l540.672 540.672c14.336 14.336 14.336 36.864 0 51.2s-37.888 14.336-52.224 0l-543.744-543.744v171.008z" />
<glyph unicode="&#xe806;" d="M970.752 587.264l-520.192-515.072c-86.016-84.992-226.304-84.992-312.32 0-86.016 86.016-86.016 224.256 0 309.248l467.968 462.848c58.368 57.344 151.552 57.344 208.896 0 57.344-56.32 57.344-148.48 0-205.824l-468.992-462.848c-28.672-28.672-74.752-28.672-103.424 0s-28.672 74.752 0 103.424l415.744 411.648-52.224 51.2-415.744-411.648c-57.344-57.344-57.344-149.504 0-205.824 57.344-57.344 150.528-57.344 207.872 0l467.968 462.848c87.040 84.992 87.040 223.232 0 309.248-86.016 84.992-225.28 84.992-311.296 0l-494.592-489.472 1.024-2.048c-89.088-113.664-81.92-278.528 24.576-384 106.496-104.448 273.408-112.64 389.12-23.552l1.024-2.048 546.816 540.672-52.224 51.2z" horiz-adv-x="1022" />
<glyph unicode="&#xe807;" d="M448.512 832v-640c0-106.496-86.016-192.512-192.512-192.512s-191.488 86.016-191.488 192.512v576.512c0 70.656 57.344 128 128 128s128-57.344 128-128v-576.512c0-34.816-28.672-63.488-64.512-63.488-34.816 0-63.488 28.672-63.488 63.488v512h-64.512v-512c0-70.656 57.344-128 128-128s128 57.344 128 128v576.512c0 105.472-86.016 191.488-191.488 191.488-106.496 0-192.512-86.016-192.512-191.488v-608.256c15.36-126.976 125.952-224.256 256-224.256 131.072 0 240.64 97.28 256 224.256v671.744h-63.488z" horiz-adv-x="512" />
<glyph unicode="&#xe808;" d="M596.992 960l-384-256h-128c-47.104 0-84.992-37.888-84.992-84.992v-342.016c0-47.104 37.888-84.992 84.992-84.992h128l384-256c47.104 0 86.016 37.888 86.016 84.992v854.016c0 47.104-38.912 84.992-86.016 84.992zM212.992 320c0-23.552-18.432-43.008-41.984-43.008h-43.008c-23.552 0-43.008 19.456-43.008 43.008v256c0 23.552 19.456 43.008 43.008 43.008h43.008c23.552 0 41.984-19.456 41.984-43.008v-256zM596.992 20.992l-297.984 187.392v479.232l297.984 187.392v-854.016zM1085.44 448l178.176 178.176c19.456 19.456 21.504 48.128 4.096 65.536s-46.080 15.36-65.536-4.096l-178.176-178.176-178.176 178.176c-19.456 19.456-48.128 21.504-65.536 4.096s-15.36-46.080 4.096-65.536l178.176-178.176-178.176-178.176c-19.456-19.456-21.504-48.128-4.096-65.536s46.080-15.36 65.536 4.096l178.176 178.176 178.176-178.176c19.456-19.456 48.128-20.48 65.536-4.096 17.408 17.408 15.36 46.080-4.096 65.536l-178.176 178.176z" horiz-adv-x="1280" />
<glyph unicode="&#xe809;" d="M736.256 479.744h-338.944l132.096 132.096c12.288 12.288 12.288 32.768 0 45.056s-32.768 12.288-45.056 0l-181.248-181.248c-8.192-7.168-10.24-17.408-8.192-27.648-2.048-10.24 0-20.48 8.192-27.648l181.248-181.248c12.288-12.288 32.768-12.288 45.056 0s12.288 32.768 0 45.056l-132.096 132.096h338.944c17.408 0 31.744 14.336 31.744 31.744s-14.336 31.744-31.744 31.744zM512 960c-282.624 0-512-229.376-512-512s229.376-512 512-512 512 229.376 512 512c0 282.624-229.376 512-512 512zM512-0.512c-247.808 0-447.488 200.704-447.488 448.512s199.68 448.512 447.488 448.512 448.512-200.704 448.512-448.512c0-247.808-200.704-448.512-448.512-448.512z" />
<glyph unicode="&#xe80a;" d="M896 960h-768c-70.656 0-128-57.344-128-128v-768c0-70.656 57.344-128 128-128h768c70.656 0 128 57.344 128 128v768c0 70.656-57.344 128-128 128zM960.512 64c0-35.84-28.672-64.512-64.512-64.512h-768c-34.816 0-63.488 28.672-63.488 64.512v768c0 35.84 28.672 64.512 63.488 64.512h768c35.84 0 64.512-28.672 64.512-64.512v-768zM704.512 479.744h-338.944l132.096 132.096c12.288 12.288 12.288 32.768 0 45.056-13.312 12.288-32.768 12.288-46.080 0l-180.224-181.248c-8.192-7.168-10.24-17.408-9.216-27.648-1.024-10.24 1.024-20.48 9.216-27.648l180.224-181.248c13.312-12.288 32.768-12.288 46.080 0s12.288 32.768 0 45.056l-132.096 132.096h338.944c17.408 0 31.744 14.336 31.744 31.744s-14.336 31.744-31.744 31.744z" />
<glyph unicode="&#xe80b;" d="M384 735.744c-88.064 0-159.744-71.68-159.744-159.744s71.68-159.744 159.744-159.744 159.744 71.68 159.744 159.744c0 88.064-71.68 159.744-159.744 159.744zM384 479.744c-53.248 0-96.256 43.008-96.256 96.256s43.008 96.256 96.256 96.256 96.256-43.008 96.256-96.256c0-53.248-43.008-96.256-96.256-96.256zM384 960c-211.968 0-384-172.032-384-384 0-160.768 320.512-640 384-640 62.464 0 384 481.28 384 640 0 211.968-172.032 384-384 384zM384 32.256c-53.248-1.024-319.488 409.6-319.488 543.744 0 177.152 142.336 320.512 319.488 320.512s320.512-143.36 320.512-320.512c0-132.096-268.288-544.768-320.512-543.744z" horiz-adv-x="768" />
<glyph unicode="&#xe80c;" d="M896 960c0 0-185.344-51.2-353.28-96.256-21.504-1.024-43.008 0-63.488 0-160.768 43.008-351.232 96.256-351.232 96.256-70.656 0-128-57.344-128-128v-671.744c0-70.656 60.416-106.496 128-128 0 0 173.056-48.128 351.232-96.256h64.512c180.224 48.128 352.256 96.256 352.256 96.256 65.536 16.384 128 57.344 128 128v671.744c0 70.656-57.344 128-128 128zM480.256 0.512c-175.104 46.080-352.256 95.232-352.256 95.232-35.84 10.24-63.488 28.672-63.488 64.512v671.744c0 35.84 28.672 64.512 63.488 64.512l352.256-96.256v-799.744zM960.512 160.256c0-35.84-29.696-53.248-64.512-64.512 0 0-174.080-48.128-352.256-95.232v799.744l352.256 96.256c35.84 0 64.512-28.672 64.512-64.512v-671.744z" />
<glyph unicode="&#xe80d;" d="M614.4 960h-478.208c-74.752 0-136.192-61.44-136.192-136.192v-751.616c0-74.752 61.44-136.192 136.192-136.192l239.616 238.592 238.592-238.592c75.776 0 136.192 61.44 136.192 136.192v751.616c0 74.752-60.416 136.192-136.192 136.192zM683.008 72.192c0-37.888-30.72-67.584-68.608-67.584l-238.592 238.592-239.616-238.592c-36.864 0-67.584 29.696-67.584 67.584v751.616c0 37.888 30.72 67.584 67.584 67.584h478.208c37.888 0 68.608-29.696 68.608-67.584v-751.616z" horiz-adv-x="750" />
<glyph unicode="&#xe80e;" d="M288.768 576h-1.024v352.256c0 17.408-14.336 31.744-31.744 31.744h-128c-17.408 0-31.744-14.336-31.744-31.744v-352.256h-1.024c-64.512 0-95.232-57.344-95.232-128v-512h384v512c0 70.656-32.768 128-95.232 128zM159.744 896.512h64.512v-64.512h-64.512v64.512zM159.744 768.512h64.512v-192.512h-64.512v192.512zM320.512-0.512h-256v448.512c0 35.84 28.672 64.512 63.488 64.512h128c35.84 0 64.512-28.672 64.512-64.512v-448.512z" horiz-adv-x="384" />
<glyph unicode="&#xe80f;" d="M146.432 594.432c-80.896 0-146.432-65.536-146.432-146.432s65.536-146.432 146.432-146.432c80.896 0 146.432 65.536 146.432 146.432s-65.536 146.432-146.432 146.432zM146.432 375.296c-40.96 0-73.728 32.768-73.728 72.704s32.768 72.704 73.728 72.704 72.704-31.744 72.704-72.704c0-39.936-32.768-72.704-72.704-72.704zM146.432 228.864c-80.896 0-146.432-65.536-146.432-146.432s65.536-146.432 146.432-146.432c80.896 0 146.432 65.536 146.432 146.432s-65.536 146.432-146.432 146.432zM146.432 8.704c-40.96 0-73.728 32.768-73.728 73.728 0 39.936 32.768 72.704 73.728 72.704s72.704-32.768 72.704-72.704c0-40.96-32.768-73.728-72.704-73.728zM1024 667.136c80.896 0 146.432 65.536 146.432 146.432s-65.536 146.432-146.432 146.432c-80.896 0-146.432-65.536-146.432-146.432s65.536-146.432 146.432-146.432zM1024 887.296c40.96 0 72.704-32.768 72.704-73.728 0-39.936-31.744-72.704-72.704-72.704s-72.704 32.768-72.704 72.704c0 40.96 32.768 73.728 72.704 73.728zM1024 228.864c-80.896 0-146.432-65.536-146.432-146.432s65.536-146.432 146.432-146.432c80.896 0 146.432 65.536 146.432 146.432s-65.536 146.432-146.432 146.432zM1024 8.704c-39.936 0-72.704 32.768-72.704 73.728 0 39.936 32.768 72.704 72.704 72.704s72.704-32.768 72.704-72.704c0-40.96-31.744-73.728-72.704-73.728zM146.432 960c-80.896 0-146.432-65.536-146.432-146.432s65.536-146.432 146.432-146.432c80.896 0 146.432 65.536 146.432 146.432s-65.536 146.432-146.432 146.432zM146.432 740.864c-40.96 0-73.728 32.768-73.728 72.704 0 40.96 32.768 73.728 73.728 73.728s72.704-32.768 72.704-73.728c0-39.936-32.768-72.704-72.704-72.704zM1024 594.432c-80.896 0-146.432-65.536-146.432-146.432s65.536-146.432 146.432-146.432c80.896 0 146.432 65.536 146.432 146.432s-65.536 146.432-146.432 146.432zM1024 375.296c-39.936 0-72.704 32.768-72.704 72.704s32.768 72.704 72.704 72.704 72.704-31.744 72.704-72.704c0-39.936-31.744-72.704-72.704-72.704zM584.704 960c-79.872 0-145.408-65.536-145.408-146.432s65.536-146.432 145.408-146.432c80.896 0 146.432 65.536 146.432 146.432s-65.536 146.432-146.432 146.432zM584.704 740.864c-39.936 0-72.704 32.768-72.704 72.704 0 40.96 32.768 73.728 72.704 73.728s73.728-32.768 73.728-73.728c0-39.936-32.768-72.704-73.728-72.704zM584.704 228.864c-79.872 0-145.408-65.536-145.408-146.432s65.536-146.432 145.408-146.432c80.896 0 146.432 65.536 146.432 146.432s-65.536 146.432-146.432 146.432zM584.704 8.704c-39.936 0-72.704 32.768-72.704 73.728 0 39.936 32.768 72.704 72.704 72.704s73.728-32.768 73.728-72.704c0-40.96-32.768-73.728-73.728-73.728zM584.704 594.432c-79.872 0-145.408-65.536-145.408-146.432s65.536-146.432 145.408-146.432c80.896 0 146.432 65.536 146.432 146.432s-65.536 146.432-146.432 146.432zM584.704 375.296c-39.936 0-72.704 32.768-72.704 72.704s32.768 72.704 72.704 72.704 73.728-31.744 73.728-72.704c0-39.936-32.768-72.704-73.728-72.704z" horiz-adv-x="1169" />
<glyph unicode="&#xe810;" d="M482.304 497.152c-20.48 0-36.864-16.384-36.864-36.864s16.384-36.864 36.864-36.864 36.864 16.384 36.864 36.864c0 20.48-16.384 36.864-36.864 36.864zM321.536 472.576h-73.728v74.752c0 13.312-11.264 24.576-25.6 24.576s-24.576-11.264-24.576-24.576v-74.752h-73.728c-14.336 0-24.576-11.264-24.576-24.576s10.24-24.576 24.576-24.576h73.728v-74.752c0-13.312 11.264-24.576 24.576-24.576s25.6 11.264 25.6 24.576v74.752h73.728c13.312 0 24.576 11.264 24.576 24.576s-11.264 24.576-24.576 24.576zM556.032 398.848c-20.48 0-36.864-16.384-36.864-36.864s16.384-37.888 36.864-37.888 37.888 17.408 37.888 37.888-17.408 36.864-37.888 36.864zM581.632 571.904c-20.48 0-37.888-16.384-37.888-36.864s17.408-37.888 37.888-37.888 36.864 17.408 36.864 37.888-16.384 36.864-36.864 36.864zM655.36 472.576c-20.48 0-36.864-16.384-36.864-36.864s16.384-36.864 36.864-36.864c20.48 0 36.864 16.384 36.864 36.864s-16.384 36.864-36.864 36.864zM643.072 670.208h-494.592c-81.92 0-148.48-65.536-148.48-148.48v-147.456c0-81.92 66.56-148.48 148.48-148.48h494.592c81.92 0 148.48 66.56 148.48 148.48v147.456c0 82.944-66.56 148.48-148.48 148.48zM741.376 374.272c0-55.296-44.032-99.328-98.304-99.328h-494.592c-54.272 0-99.328 44.032-99.328 99.328v147.456c0 55.296 45.056 99.328 99.328 99.328h494.592c54.272 0 98.304-44.032 98.304-99.328v-147.456z" horiz-adv-x="792" />
<glyph unicode="&#xe811;" d="M608.256 960h-480.256c-70.656 0-128-57.344-128-128v-768c0-70.656 57.344-128 128-128h480.256c70.656 0 128 57.344 128 128v768c0 70.656-57.344 128-128 128zM671.744 64c0-35.84-28.672-64.512-63.488-64.512h-480.256c-34.816 0-63.488 28.672-63.488 64.512v96.256h607.232v-96.256zM671.744 223.744h-607.232v512h607.232v-512zM671.744 800.256h-607.232v31.744c0 35.84 28.672 64.512 63.488 64.512h480.256c34.816 0 63.488-28.672 63.488-64.512v-31.744zM367.616 32.256c26.624 0 48.128 21.504 48.128 48.128s-21.504 48.128-48.128 48.128c-25.6 0-47.104-21.504-47.104-48.128s21.504-48.128 47.104-48.128z" horiz-adv-x="735" />
<glyph unicode="&#xe812;" d="M287.744 64c35.84 0 64.512 28.672 64.512 64.512 0 34.816-28.672 63.488-64.512 63.488-34.816 0-63.488-28.672-63.488-63.488 0-35.84 28.672-64.512 63.488-64.512zM448.512 960h-320.512c-70.656 0-128-57.344-128-128v-768c0-70.656 57.344-128 128-128h320.512c70.656 0 128 57.344 128 128v768c0 70.656-57.344 128-128 128zM512 64c0-35.84-28.672-64.512-63.488-64.512h-320.512c-34.816 0-63.488 28.672-63.488 64.512v192.512h447.488v-192.512zM512 320h-447.488v415.744h447.488v-415.744zM512 800.256h-447.488v31.744c0 35.84 28.672 64.512 63.488 64.512h320.512c34.816 0 63.488-28.672 63.488-64.512v-31.744z" horiz-adv-x="575" />
<glyph unicode="&#xe813;" d="M39.936 881.152h1024c21.504 0 38.912 17.408 38.912 39.936 0 21.504-17.408 38.912-38.912 38.912h-1024c-22.528 0-39.936-17.408-39.936-38.912 0-22.528 17.408-39.936 39.936-39.936zM196.608 644.608c-21.504 0-38.912-17.408-38.912-38.912s17.408-39.936 38.912-39.936h709.632c21.504 0 38.912 18.432 38.912 39.936s-17.408 38.912-38.912 38.912h-709.632zM827.392 14.848h-551.936c-21.504 0-38.912-17.408-38.912-39.936s17.408-38.912 38.912-38.912h551.936c21.504 0 38.912 17.408 38.912 38.912s-17.408 39.936-38.912 39.936zM1063.936 330.24h-1024c-22.528 0-39.936-18.432-39.936-39.936s17.408-38.912 39.936-38.912h1024c21.504 0 38.912 17.408 38.912 38.912s-17.408 39.936-38.912 39.936z" horiz-adv-x="1102" />
<glyph unicode="&#xe814;" d="M671.744 416.256h-319.488c-17.408 0-31.744-14.336-31.744-31.744s14.336-32.768 31.744-32.768h319.488c18.432 0 32.768 14.336 32.768 32.768s-14.336 31.744-32.768 31.744zM736.256 607.744h-448.512c-17.408 0-31.744-14.336-31.744-31.744s14.336-31.744 31.744-31.744h448.512c17.408 0 31.744 14.336 31.744 31.744s-14.336 31.744-31.744 31.744zM512 960c-282.624 0-512-200.704-512-447.488 0-142.336 74.752-267.264 192.512-350.208v-226.304l224.256 136.192c30.72-5.12 62.464-8.192 95.232-8.192 282.624 0 512 200.704 512 448.512 0 246.784-229.376 447.488-512 447.488zM512 128.512c-36.864 0-73.728 4.096-108.544 11.264l-150.528-91.136 2.048 149.504c-115.712 68.608-190.464 183.296-190.464 314.368 0 211.968 199.68 384 447.488 384s448.512-172.032 448.512-384c0-212.992-200.704-384-448.512-384z" />
<glyph unicode="&#xe815;" d="M400.384 544.256c26.624 0 48.128 21.504 48.128 48.128s-21.504 48.128-48.128 48.128c-26.624 0-48.128-21.504-48.128-48.128s21.504-48.128 48.128-48.128zM591.872 544.256c26.624 0 48.128 21.504 48.128 48.128s-21.504 48.128-48.128 48.128c-26.624 0-48.128-21.504-48.128-48.128s21.504-48.128 48.128-48.128zM308.224 232.96c24.576-4.096 81.92-9.216 107.52-9.216 230.4 0 384 171.008 384 372.736 0 200.704-192.512 363.52-384 363.52-229.376 0-415.744-162.816-415.744-363.52 0-116.736 44.032-216.064 128-286.72v-181.248l180.224 104.448zM64.512 592.384c0 167.936 151.552 304.128 351.232 304.128 159.744 0 320.512-136.192 320.512-304.128s-125.952-304.128-320.512-304.128c-28.672 0-88.064 3.072-114.688 8.192l-108.544-72.704v113.664c-78.848 63.488-128 148.48-128 254.976zM862.208 667.136c1.024-8.192 2.048-17.408 2.048-26.624 0-20.48-2.048-40.96-5.12-60.416 43.008-50.176 68.608-112.64 68.608-180.224 0-106.496-63.488-199.68-159.744-253.952v-113.664l-109.568 72.704c-26.624-6.144-54.272-9.216-81.92-9.216-82.944 0-126.976 25.6-187.392 66.56-17.408-1.024-34.816-2.048-53.248-2.048-12.288 0-24.576 1.024-37.888 1.024 76.8-73.728 154.624-120.832 278.528-120.832 25.6 0 51.2 2.048 75.776 6.144l180.224-110.592v181.248c97.28 66.56 159.744 169.984 159.744 286.72 0 103.424-50.176 197.632-130.048 263.168zM207.872 544.256c26.624 0 48.128 21.504 48.128 48.128s-21.504 48.128-48.128 48.128c-26.624 0-48.128-21.504-48.128-48.128s21.504-48.128 48.128-48.128z" horiz-adv-x="991" />
<glyph unicode="&#xe816;" d="M1212.416 911.872c-62.464 64.512-163.84 64.512-227.328 0l-568.32-579.584-142.336 144.384c-62.464 64.512-164.864 64.512-227.328 0-62.464-63.488-62.464-167.936 0-231.424l256-261.12c62.464-64.512 164.864-64.512 227.328 0l681.984 696.32c63.488 63.488 63.488 167.936 0 231.424zM1156.096 737.792c0 0-671.744-685.056-681.984-695.296-31.744-32.768-82.944-32.768-114.688 0 0 0-257.024 262.144-258.048 263.168-28.672 31.744-27.648 81.92 3.072 113.664s81.92 31.744 113.664 0l198.656-202.752 625.664 636.928c30.72 32.768 81.92 32.768 113.664 0 30.72-31.744 30.72-83.968 0-115.712z" horiz-adv-x="1260" />
<glyph unicode="&#xe817;" d="M896 960h-768c-70.656 0-128-57.344-128-128v-768c0-70.656 57.344-128 128-128h768c70.656 0 128 57.344 128 128v768c0 70.656-57.344 128-128 128zM960.512 64c0-35.84-28.672-64.512-64.512-64.512h-768c-34.816 0-63.488 28.672-63.488 64.512v768c0 35.84 28.672 64.512 63.488 64.512h768c35.84 0 64.512-28.672 64.512-64.512v-768zM704.512 670.208c-15.36 8.192-34.816 3.072-43.008-12.288l-204.8-354.304-114.688 105.472c-12.288 13.312-32.768 13.312-45.056 2.048-13.312-12.288-13.312-32.768-2.048-46.080l146.432-134.144c12.288-13.312 32.768-14.336 45.056-2.048 4.096 4.096 230.4 397.312 230.4 397.312 8.192 15.36 3.072 34.816-12.288 44.032z" />
<glyph unicode="&#xe818;" d="M704.512 670.208c-15.36 8.192-34.816 3.072-43.008-12.288l-204.8-354.304-114.688 105.472c-12.288 13.312-32.768 13.312-45.056 2.048-13.312-12.288-13.312-32.768-2.048-46.080l146.432-134.144c12.288-13.312 32.768-14.336 45.056-2.048 4.096 4.096 230.4 397.312 230.4 397.312 8.192 15.36 3.072 34.816-12.288 44.032zM512 960c-282.624 0-512-229.376-512-512s229.376-512 512-512c282.624 0 512 229.376 512 512s-229.376 512-512 512zM512-0.512c-247.808 0-447.488 200.704-447.488 448.512s199.68 448.512 447.488 448.512c247.808 0 448.512-200.704 448.512-448.512s-200.704-448.512-448.512-448.512z" />
<glyph unicode="&#xe819;" d="M512 800.256c-122.88 0-223.232-100.352-223.232-224.256s100.352-224.256 223.232-224.256c123.904 0 224.256 100.352 224.256 224.256s-100.352 224.256-224.256 224.256zM512 416.256c-88.064 0-159.744 71.68-159.744 159.744s71.68 159.744 159.744 159.744c89.088 0 160.768-71.68 160.768-159.744s-71.68-159.744-160.768-159.744zM865.28 401.92c25.6 52.224 39.936 109.568 39.936 171.008 0 214.016-176.128 387.072-393.216 387.072s-393.216-173.056-393.216-387.072c0-61.44 15.36-118.784 40.96-171.008l-159.744-272.384c0 0 101.376-20.48 203.776-40.96 68.608-76.8 137.216-152.576 137.216-152.576l146.432 250.88c8.192-1.024 16.384-2.048 24.576-2.048 9.216 0 17.408 1.024 25.6 2.048l146.432-250.88c0 0 68.608 75.776 136.192 152.576 103.424 20.48 204.8 40.96 204.8 40.96l-159.744 272.384zM332.8 51.712c0 0-49.152 47.104-95.232 92.16-65.536 18.432-132.096 37.888-132.096 37.888l93.184 157.696c53.248-69.632 130.048-120.832 219.136-142.336l-84.992-145.408zM512 255.488c-176.128 0-319.488 143.36-319.488 320.512s143.36 320.512 319.488 320.512c177.152 0 320.512-143.36 320.512-320.512s-143.36-320.512-320.512-320.512zM787.456 143.872c-47.104-45.056-96.256-92.16-96.256-92.16l-83.968 145.408c88.064 21.504 164.864 72.704 219.136 142.336l92.16-157.696c0 0-65.536-19.456-131.072-37.888z" />
<glyph unicode="&#xe81a;" d="M512 960c-282.624 0-512-229.376-512-512s229.376-512 512-512c282.624 0 512 229.376 512 512s-229.376 512-512 512zM545.792 5.632v168.96c0 19.456-15.36 34.816-33.792 34.816s-33.792-15.36-33.792-34.816v-168.96c-218.112 17.408-391.168 190.464-408.576 408.576h168.96c19.456 0 34.816 15.36 34.816 33.792s-15.36 33.792-34.816 33.792h-168.96c17.408 218.112 190.464 391.168 408.576 408.576v-168.96c0-19.456 15.36-34.816 33.792-34.816s33.792 15.36 33.792 34.816v168.96c218.112-17.408 392.192-190.464 408.576-408.576h-168.96c-19.456 0-34.816-15.36-34.816-33.792s15.36-33.792 34.816-33.792h168.96c-16.384-218.112-190.464-391.168-408.576-408.576z" />
<glyph unicode="&#xe81b;" d="M480.256 960h-64.512v-96.256c-232.448-24.576-415.744-224.256-415.744-463.872 0-256 207.872-463.872 463.872-463.872 189.44 0 351.232 112.64 423.936 275.456l72.704-19.456c34.816 57.344 63.488 139.264 63.488 237.568 0 292.864-256 530.432-543.744 530.432zM463.872-0.512c-221.184 0-399.36 179.2-399.36 400.384 0 201.728 156.672 371.712 351.232 400.384v-430.080l406.528-141.312c-53.248-137.216-208.896-229.376-358.4-229.376zM913.408 268.8l-433.152 147.456v480.256c248.832 1.024 476.16-214.016 476.16-466.944 0-65.536-17.408-115.712-43.008-160.768z" />
<glyph unicode="&#xe81c;" d="M759.808 896.512h232.448c17.408 0 31.744 14.336 31.744 31.744s-14.336 31.744-31.744 31.744h-320.512c-3.072 0-31.744 0-31.744-31.744v-320.512c0-17.408 14.336-31.744 31.744-31.744 18.432 0 32.768 14.336 32.768 31.744v244.736c150.528-71.68 256-225.28 256-404.48 0-247.808-200.704-448.512-448.512-448.512s-447.488 200.704-447.488 448.512c0 225.28 166.912 411.648 384 443.392v64.512c-252.928-31.744-448.512-246.784-448.512-507.904 0-282.624 229.376-512 512-512s512 229.376 512 512c0 192.512-106.496 360.448-264.192 448.512z" />
<glyph unicode="&#xe81d;" d="M671.744 351.744h-447.488c-17.408 0-31.744-14.336-31.744-31.744s14.336-31.744 31.744-31.744h447.488c18.432 0 32.768 14.336 32.768 31.744s-14.336 31.744-32.768 31.744zM671.744 192h-447.488c-17.408 0-31.744-14.336-31.744-31.744s14.336-31.744 31.744-31.744h447.488c18.432 0 32.768 14.336 32.768 31.744s-14.336 31.744-32.768 31.744zM768 832h-96.256v64.512h-86.016c-27.648 37.888-78.848 63.488-137.216 63.488-59.392 0-110.592-25.6-138.24-63.488h-86.016v-64.512h-96.256c-70.656 0-128-57.344-128-128v-640c0-70.656 57.344-128 128-128h640c70.656 0 128 57.344 128 128v640c0 70.656-57.344 128-128 128zM287.744 832h71.68c0 35.84 39.936 64.512 89.088 64.512 48.128 0 88.064-28.672 88.064-64.512h71.68v-128h-320.512v128zM832.512 64c0-35.84-28.672-64.512-64.512-64.512h-640c-34.816 0-63.488 28.672-63.488 64.512v640c0 35.84 28.672 64.512 63.488 64.512h96.256v-128h447.488v128h96.256c35.84 0 64.512-28.672 64.512-64.512v-640zM671.744 512.512h-447.488c-17.408 0-31.744-14.336-31.744-32.768 0-17.408 14.336-31.744 31.744-31.744h447.488c18.432 0 32.768 14.336 32.768 31.744 0 18.432-14.336 32.768-32.768 32.768z" horiz-adv-x="896" />
<glyph unicode="&#xe81e;" d="M695.296 631.296c-13.312 12.288-33.792 12.288-46.080 0l-137.216-138.24-136.192 136.192c-12.288 12.288-32.768 12.288-45.056 0s-12.288-32.768 0-45.056l136.192-136.192-137.216-136.192c-12.288-12.288-12.288-32.768 0-46.080 13.312-12.288 33.792-12.288 46.080 0l136.192 137.216 136.192-136.192c12.288-12.288 32.768-12.288 45.056 0 12.288 13.312 12.288 32.768 0 45.056l-136.192 136.192 138.24 137.216c12.288 12.288 12.288 32.768 0 46.080zM512 960c-282.624 0-512-229.376-512-512s229.376-512 512-512c282.624 0 512 229.376 512 512s-229.376 512-512 512zM512-0.512c-247.808 0-447.488 200.704-447.488 448.512s199.68 448.512 447.488 448.512 448.512-200.704 448.512-448.512-200.704-448.512-448.512-448.512z" />
<glyph unicode="&#xe81f;" d="M984.064 745.984c-62.464 126.976-192.512 214.016-344.064 214.016-202.752 0-368.64-156.672-382.976-356.352-148.48-41.984-257.024-172.032-257.024-326.656 0-181.248 151.552-329.728 340.992-339.968 0 0 590.848-1.024 598.016-1.024 223.232 0 425.984 181.248 425.984 405.504 0 216.064-167.936 391.168-380.928 404.48zM939.008 20.992c-6.144 0-598.016 0-598.016 0s-257.024 26.624-256 256c1.024 130.048 114.688 248.832 256 256 0 177.152 113.664 342.016 299.008 342.016 146.432 0 244.736-90.112 278.528-214.016 211.968 9.216 355.328-157.696 361.472-297.984 9.216-188.416-187.392-342.016-340.992-342.016z" horiz-adv-x="1366" />
<glyph unicode="&#xe820;" d="M415.744-0.512c-17.408 0-31.744-14.336-31.744-31.744s14.336-31.744 31.744-31.744c18.432 0 32.768 14.336 32.768 31.744s-14.336 31.744-32.768 31.744zM352.256 128.512c-17.408 0-31.744-14.336-31.744-32.768 0-17.408 14.336-31.744 31.744-31.744s31.744 14.336 31.744 31.744c0 18.432-14.336 32.768-31.744 32.768zM543.744 128.512c-17.408 0-31.744-14.336-31.744-32.768 0-17.408 14.336-31.744 31.744-31.744 18.432 0 32.768 14.336 32.768 31.744 0 18.432-14.336 32.768-32.768 32.768zM608.256-0.512c-17.408 0-31.744-14.336-31.744-31.744s14.336-31.744 31.744-31.744c17.408 0 31.744 14.336 31.744 31.744s-14.336 31.744-31.744 31.744zM738.304 799.232c-47.104 95.232-144.384 160.768-258.048 160.768-152.576 0-276.48-117.76-286.72-267.264-112.64-31.744-193.536-129.024-193.536-244.736 0-136.192 113.664-247.808 256-256 0 0 475.136 0 480.256 0 156.672 0 287.744 136.192 287.744 304.128 0 176.128-125.952 293.888-285.696 303.104zM704.512 256.512c-4.096 0-416.768 0-416.768 0-159.744 1.024-223.232 123.904-223.232 191.488 0 87.040 76.8 185.344 191.488 192.512-1.024 130.048 79.872 256 224.256 256 109.568 0 182.272-67.584 207.872-160.768 148.48 7.168 272.384-97.28 272.384-223.232 0-135.168-97.28-256-256-256zM736.256 128.512c-17.408 0-31.744-14.336-31.744-32.768 0-17.408 14.336-31.744 31.744-31.744s31.744 14.336 31.744 31.744c0 18.432-14.336 32.768-31.744 32.768z" />
<glyph unicode="&#xe821;" d="M974.848 895.488c8.192 7.168 13.312 16.384 13.312 27.648 0 16.384-10.24 28.672-23.552 34.816-5.12 2.048-11.264 2.048-16.384 2.048h-909.312c-10.24 1.024-20.48-3.072-27.648-10.24-15.36-14.336-15.36-37.888 0-52.224l464.896-559.104v-329.728h-146.432c-20.48 0-36.864-16.384-36.864-35.84 0-20.48 16.384-36.864 36.864-36.864h365.568c20.48 0 36.864 16.384 36.864 36.864 0 19.456-16.384 35.84-36.864 35.84h-146.432v329.728l425.984 557.056zM512 411.136l-398.336 476.16h763.904l-365.568-476.16z" horiz-adv-x="987" />
<glyph unicode="&#xe822;" d="M303.104 271.872l-203.776 164.864 203.776 165.888c15.36 14.336 15.36 38.912 0 54.272s-39.936 15.36-56.32 0l-235.52-190.464c-8.192-8.192-12.288-18.432-11.264-29.696-1.024-10.24 3.072-20.48 11.264-28.672l235.52-191.488c16.384-14.336 40.96-14.336 56.32 0 15.36 15.36 15.36 39.936 0 55.296zM864.256 954.88c-18.432 10.24-41.984 4.096-53.248-14.336l-492.544-948.224c-10.24-18.432-6.144-47.104 14.336-52.224 25.6-8.192 43.008-5.12 54.272 13.312l492.544 948.224c10.24 19.456 4.096 43.008-15.36 53.248zM1170.432 466.432l-236.544 190.464c-15.36 15.36-39.936 15.36-55.296 0-16.384-15.36-16.384-39.936 0-54.272l203.776-165.888-203.776-164.864c-16.384-15.36-16.384-39.936 0-55.296 15.36-14.336 39.936-14.336 55.296 0l236.544 191.488c8.192 8.192 11.264 18.432 11.264 28.672 0 11.264-3.072 21.504-11.264 29.696z" horiz-adv-x="1182" />
<glyph unicode="&#xe823;" d="M416.768 384.512h-284.672c-17.408 0-31.744-14.336-31.744-31.744s14.336-31.744 31.744-31.744h209.92l-342.016-339.968 45.056-45.056 342.016 339.968-1.024-206.848c0-17.408 13.312-31.744 31.744-31.744 17.408 0 31.744 14.336 31.744 31.744v283.648c0 9.216-4.096 17.408-10.24 22.528s-14.336 9.216-22.528 9.216zM892.928 574.976h-209.92l342.016 339.968-44.032 45.056-342.016-339.968 1.024 206.848c0 17.408-14.336 31.744-31.744 31.744s-31.744-14.336-31.744-31.744v-283.648c0-9.216 4.096-17.408 10.24-22.528 5.12-5.12 13.312-9.216 22.528-9.216h283.648c17.408 0 31.744 14.336 31.744 31.744s-14.336 31.744-31.744 31.744z" horiz-adv-x="1026" />
<glyph unicode="&#xe824;" d="M512 960c-282.624 0-512-196.608-512-439.296 0-199.68 155.648-367.616 369.664-420.864l142.336-163.84 142.336 163.84c214.016 53.248 369.664 221.184 369.664 420.864 0 242.688-229.376 439.296-512 439.296zM623.616 171.52l-70.656-88.064-40.96-51.2-111.616 139.264c-193.536 40.96-336.896 185.344-336.896 356.352 0 203.776 200.704 368.64 448.512 368.64s448.512-164.864 448.512-368.64c0-171.008-143.36-315.392-336.896-356.352z" />
<glyph unicode="&#xe825;" d="M545.792 431.616c0 27.648-22.528 51.2-51.2 51.2s-51.2-23.552-51.2-51.2c0-28.672 23.552-51.2 51.2-51.2s51.2 22.528 51.2 51.2zM393.216 255.488l31.744 156.672-59.392 34.816-45.056-317.44 251.904 197.632-59.392 33.792-119.808-105.472zM476.16 501.248l119.808 105.472-30.72-156.672 58.368-33.792 45.056 316.416-251.904-197.632 59.392-33.792zM512 960c-282.624 0-512-229.376-512-512s229.376-512 512-512c282.624 0 512 229.376 512 512s-229.376 512-512 512zM512 4.608c-245.76 0-444.416 198.656-444.416 443.392 0 245.76 198.656 444.416 444.416 444.416s443.392-198.656 443.392-444.416c0-244.736-198.656-443.392-443.392-443.392z" />
<glyph unicode="&#xe826;" d="M447.488 416.256h-287.744c-17.408 0-31.744-14.336-31.744-31.744 0-18.432 14.336-32.768 31.744-32.768h211.968l-217.088-217.088 45.056-45.056 217.088 217.088-1.024-210.944c0-17.408 14.336-31.744 32.768-31.744 17.408 0 31.744 14.336 31.744 31.744v288.768c0 9.216-4.096 16.384-10.24 21.504-6.144 6.144-14.336 10.24-22.528 10.24zM864.256 544.256h-211.968l217.088 217.088-45.056 45.056-217.088-217.088 1.024 210.944c0 17.408-14.336 31.744-31.744 31.744-18.432 0-32.768-14.336-32.768-31.744v-287.744c0-10.24 4.096-17.408 10.24-22.528 6.144-6.144 14.336-10.24 22.528-10.24h287.744c17.408 0 31.744 14.336 31.744 32.768 0 17.408-14.336 31.744-31.744 31.744zM896 960h-768c-70.656 0-128-57.344-128-128v-768c0-70.656 57.344-128 128-128h768c70.656 0 128 57.344 128 128v768c0 70.656-57.344 128-128 128zM960.512 64c0-35.84-28.672-64.512-64.512-64.512h-768c-34.816 0-63.488 28.672-63.488 64.512v768c0 35.84 28.672 64.512 63.488 64.512h768c35.84 0 64.512-28.672 64.512-64.512v-768z" />
<glyph unicode="&#xe827;" d="M671.744 960c-4.096 0-384 0-384 0-67.584 0-128-62.464-128-128l-36.864-1.024c-67.584 0-122.88-61.44-122.88-126.976v-640c0-65.536 60.416-128 128-128h480.256c67.584 0 128 62.464 128 128h31.744c67.584 0 128 62.464 128 128v510.976l-224.256 257.024zM608.256-0.512h-480.256c-33.792 0-63.488 31.744-63.488 64.512v640c0 32.768 26.624 63.488 60.416 63.488l34.816 1.024v-576.512c0-65.536 60.416-128 128-128h384c0-32.768-29.696-64.512-63.488-64.512zM832.512 192c0-32.768-30.72-63.488-64.512-63.488h-480.256c-33.792 0-63.488 30.72-63.488 63.488v640c0 32.768 29.696 64.512 63.488 64.512h320.512c-1.024-73.728 0-129.024 0-129.024 0-66.56 59.392-126.976 128-126.976 0 0 33.792 0 96.256 0v-448.512zM736.256 704c-33.792 0-64.512 62.464-64.512 95.232 0 0 0 33.792 0 96.256v0l160.768-191.488h-96.256zM671.744 511.488h-287.744c-17.408 0-31.744-14.336-31.744-31.744s14.336-31.744 31.744-31.744h287.744c18.432 0 32.768 14.336 32.768 31.744s-14.336 31.744-32.768 31.744zM671.744 351.744h-287.744c-17.408 0-31.744-14.336-31.744-31.744 0-18.432 14.336-32.768 31.744-32.768h287.744c18.432 0 32.768 14.336 32.768 32.768 0 17.408-14.336 31.744-32.768 31.744z" horiz-adv-x="896" />
<glyph unicode="&#xe828;" d="M360.448 448c0 221.184 143.36 408.576 344.064 480.256-56.32 20.48-116.736 31.744-180.224 31.744-289.792 0-524.288-229.376-524.288-512s234.496-512 524.288-512c63.488 0 123.904 11.264 180.224 31.744-200.704 71.68-344.064 259.072-344.064 480.256zM455.68-0.512c-158.72 12.288-390.144 200.704-390.144 448.512s226.304 434.176 390.144 448.512c49.152 4.096 22.528 3.072 68.608 0-107.52-67.584-229.376-254.976-229.376-448.512s89.088-371.712 229.376-448.512c-43.008-3.072-21.504-3.072-68.608 0z" horiz-adv-x="703" />
<glyph unicode="&#xe829;" d="M992.256 128.512h-96.256v543.744l-63.488-64.512v-479.232h-596.992l699.392 729.088-45.056 45.056-697.344-728.064v593.92h448.512l58.368 63.488h-506.88v96.256c0 17.408-14.336 31.744-32.768 31.744-17.408 0-31.744-14.336-31.744-31.744v-96.256h-96.256c-17.408 0-31.744-14.336-31.744-31.744s14.336-31.744 31.744-31.744h96.256v-704.512h704.512v-96.256c0-17.408 14.336-31.744 31.744-31.744s31.744 14.336 31.744 31.744v96.256h96.256c17.408 0 31.744 14.336 31.744 31.744 0 18.432-14.336 32.768-31.744 32.768z" />
<glyph unicode="&#xe82a;" d="M744.448 448l231.424 232.448c64.512 63.488 64.512 167.936 0 231.424-63.488 64.512-167.936 64.512-231.424 0l-232.448-231.424-231.424 231.424c-64.512 64.512-167.936 64.512-232.448 0-64.512-63.488-64.512-167.936 0-231.424l232.448-232.448-232.448-231.424c-64.512-64.512-64.512-168.96 0-232.448 64.512-64.512 167.936-64.512 232.448 0l231.424 232.448 232.448-232.448c63.488-64.512 167.936-64.512 231.424 0 64.512 63.488 64.512 167.936 0 232.448l-231.424 231.424zM917.504 42.496c-31.744-32.768-82.944-32.768-115.712 0l-289.792 289.792-289.792-289.792c-31.744-32.768-83.968-32.768-115.712 0-32.768 31.744-32.768 83.968 0 115.712l289.792 289.792-289.792 289.792c-32.768 32.768-32.768 83.968 0 115.712 31.744 32.768 83.968 32.768 115.712 0l289.792-289.792 289.792 289.792c32.768 32.768 83.968 32.768 115.712 0 32.768-31.744 32.768-82.944 0-115.712l-289.792-289.792 289.792-289.792c32.768-31.744 32.768-83.968 0-115.712z" />
<glyph unicode="&#xe82b;" d="M670.72 606.72c-12.288 12.288-32.768 12.288-45.056 0l-113.664-113.664-112.64 113.664c-13.312 12.288-32.768 12.288-46.080 0-12.288-12.288-12.288-32.768 0-45.056l113.664-113.664-113.664-112.64c-12.288-13.312-12.288-32.768 0-46.080 13.312-12.288 32.768-12.288 46.080 0l112.64 113.664 113.664-113.664c12.288-12.288 32.768-12.288 45.056 0 12.288 13.312 12.288 32.768 0 46.080l-113.664 112.64 113.664 113.664c12.288 12.288 12.288 32.768 0 45.056zM896 960h-768c-70.656 0-128-57.344-128-128v-768c0-70.656 57.344-128 128-128h768c70.656 0 128 57.344 128 128v768c0 70.656-57.344 128-128 128zM960.512 64c0-35.84-28.672-64.512-64.512-64.512h-768c-34.816 0-63.488 28.672-63.488 64.512v768c0 35.84 28.672 64.512 63.488 64.512h768c35.84 0 64.512-28.672 64.512-64.512v-768z" />
<glyph unicode="&#xe82c;" d="M546.816-7.68l-474.112 218.112c2.048-1.024-41.984 18.432-72.704 36.864 0-26.624 7.168-74.752 31.744-88.064l463.872-208.896c40.96-19.456 58.368-19.456 102.4 0l464.896 208.896c22.528 10.24 30.72 60.416 30.72 88.064-29.696-15.36-71.68-36.864-72.704-36.864l-474.112-218.112zM546.816 902.656c3.072-4.096 3.072-1.024 0 0v0zM31.744 377.344l463.872-207.872c40.96-19.456 58.368-19.456 102.4 0l464.896 207.872c22.528 11.264 30.72 61.44 30.72 88.064-29.696-14.336-71.68-35.84-72.704-35.84l-474.112-219.136-474.112 219.136c2.048-1.024-41.984 18.432-72.704 35.84 0-26.624 7.168-74.752 31.744-88.064zM31.744 596.48l463.872-208.896c40.96-19.456 58.368-19.456 102.4 0l464.896 208.896c33.792 15.36 34.816 82.944 0 102.4l-464.896 245.76c-35.84 21.504-61.44 20.48-102.4 0l-463.872-245.76c-35.84-22.528-36.864-82.944 0-102.4zM546.816 902.656l474.112-254.976-474.112-199.68-474.112 199.68 474.112 254.976z" horiz-adv-x="1094" />
<glyph unicode="&#xe82d;" d="M393.216 179.712l-137.216-136.192v808.96l137.216-136.192c12.288-13.312 32.768-13.312 45.056 0 12.288 12.288 12.288 32.768 0 45.056l-190.464 189.44c-6.144 7.168-15.36 9.216-23.552 9.216-9.216 0-18.432-2.048-24.576-9.216l-190.464-189.44c-12.288-12.288-12.288-32.768 0-45.056 13.312-13.312 32.768-13.312 46.080 0l136.192 136.192v-808.96l-136.192 136.192c-13.312 13.312-32.768 13.312-46.080 0-12.288-12.288-12.288-32.768 0-45.056l190.464-189.44c6.144-7.168 15.36-9.216 24.576-9.216 8.192 0 17.408 2.048 23.552 9.216l190.464 189.44c12.288 12.288 12.288 32.768 0 45.056-12.288 13.312-32.768 13.312-45.056 0z" horiz-adv-x="447" />
<glyph unicode="&#xe82e;" d="M465.92 448c1.024 12.288-3.072 24.576-12.288 33.792l-379.904 379.904c-17.408 16.384-44.032 16.384-61.44 0-16.384-16.384-16.384-44.032 0-60.416l353.28-353.28-353.28-352.256c-16.384-17.408-16.384-44.032 0-61.44 17.408-16.384 44.032-16.384 61.44 0l379.904 379.904c9.216 9.216 13.312 21.504 12.288 33.792zM969.728 481.792l-465.92 465.92c-17.408 16.384-44.032 16.384-61.44 0-16.384-17.408-16.384-44.032 0-61.44l439.296-438.272-439.296-438.272c-16.384-17.408-16.384-44.032 0-61.44 17.408-16.384 44.032-16.384 61.44 0l465.92 465.92c9.216 9.216 13.312 21.504 12.288 33.792 1.024 12.288-3.072 24.576-12.288 33.792z" horiz-adv-x="982" />
<glyph unicode="&#xe82f;" d="M784.384 466.432l-146.432 147.456c-10.24 9.216-25.6 9.216-34.816 0-10.24-10.24-10.24-25.6 0-35.84l104.448-105.472h-624.64l105.472 105.472c10.24 10.24 10.24 25.6 0 35.84-9.216 9.216-25.6 9.216-34.816 0l-146.432-147.456c-5.12-5.12-7.168-11.264-7.168-18.432s2.048-13.312 7.168-18.432l146.432-147.456c9.216-9.216 25.6-9.216 34.816 0 10.24 10.24 10.24 25.6 0 35.84l-105.472 105.472h624.64l-104.448-105.472c-10.24-10.24-10.24-25.6 0-35.84 9.216-9.216 24.576-9.216 34.816 0l146.432 147.456c5.12 5.12 7.168 11.264 7.168 18.432s-2.048 13.312-7.168 18.432z" horiz-adv-x="792" />
<glyph unicode="&#xe830;" d="M740.352 593.408l-228.352-228.352-227.328 228.352c-13.312 12.288-32.768 12.288-46.080 0-12.288-12.288-12.288-32.768 0-45.056l245.76-245.76c7.168-7.168 17.408-10.24 27.648-8.192 10.24-2.048 20.48 1.024 28.672 8.192l244.736 245.76c12.288 12.288 12.288 32.768 0 45.056s-32.768 12.288-45.056 0zM512 960c-282.624 0-512-229.376-512-512s229.376-512 512-512c282.624 0 512 229.376 512 512s-229.376 512-512 512zM512-0.512c-247.808 0-447.488 200.704-447.488 448.512s199.68 448.512 447.488 448.512c247.808 0 448.512-200.704 448.512-448.512s-200.704-448.512-448.512-448.512z" />
<glyph unicode="&#xe831;" d="M675.84 433.664l-132.096-132.096v338.944c0 17.408-14.336 31.744-31.744 31.744s-31.744-14.336-31.744-31.744v-338.944l-132.096 132.096c-12.288 12.288-32.768 12.288-45.056 0-12.288-13.312-12.288-32.768 0-46.080l181.248-180.224c7.168-8.192 17.408-10.24 27.648-9.216 10.24-1.024 20.48 1.024 28.672 9.216l180.224 180.224c13.312 13.312 13.312 32.768 0 46.080s-32.768 12.288-45.056 0zM896 960h-768c-70.656 0-128-57.344-128-128v-768c0-70.656 57.344-128 128-128h768c70.656 0 128 57.344 128 128v768c0 70.656-57.344 128-128 128zM960.512 64c0-35.84-28.672-64.512-64.512-64.512h-768c-34.816 0-63.488 28.672-63.488 64.512v768c0 35.84 28.672 64.512 63.488 64.512h768c35.84 0 64.512-28.672 64.512-64.512v-768z" />
<glyph unicode="&#xe832;" d="M202.752 359.936l221.184-221.184c6.144-6.144 15.36-9.216 24.576-9.216 8.192 0 17.408 3.072 23.552 9.216l221.184 221.184c12.288 12.288 12.288 32.768 0 45.056s-32.768 12.288-45.056 0l-167.936-167.936v691.2c0 17.408-14.336 31.744-31.744 31.744-18.432 0-32.768-14.336-32.768-31.744v-691.2l-167.936 167.936c-12.288 12.288-32.768 12.288-45.056 0s-12.288-32.768 0-45.056zM768 832h-96.256v-63.488h96.256c35.84 0 64.512-28.672 64.512-64.512v-640c0-35.84-28.672-64.512-64.512-64.512h-640c-34.816 0-63.488 28.672-63.488 64.512v640c0 35.84 28.672 64.512 63.488 64.512h96.256v63.488h-96.256c-70.656 0-128-57.344-128-128v-640c0-70.656 57.344-128 128-128h640c70.656 0 128 57.344 128 128v640c0 70.656-57.344 128-128 128z" horiz-adv-x="896" />
<glyph unicode="&#xe833;" d="M896 960h-768c-70.656 0-128-57.344-128-128v-768c0-70.656 57.344-128 128-128h768c70.656 0 128 57.344 128 128v768c0 70.656-57.344 128-128 128zM960.512 64c0-35.84-28.672-64.512-64.512-64.512h-768c-34.816 0-63.488 28.672-63.488 64.512v768c0 35.84 28.672 64.512 63.488 64.512h768c35.84 0 64.512-28.672 64.512-64.512v-768zM776.192 630.272l-264.192-266.24-265.216 266.24c-12.288 12.288-32.768 12.288-46.080 0-12.288-13.312-12.288-33.792 0-46.080l286.72-286.72c6.144-7.168 15.36-10.24 24.576-9.216 8.192-1.024 17.408 2.048 23.552 9.216l286.72 286.72c12.288 12.288 12.288 32.768 0 46.080-13.312 12.288-32.768 12.288-46.080 0z" />
<glyph unicode="&#xe834;" d="M781.312 669.184c-12.288 13.312-33.792 13.312-46.080 0l-339.968-371.712-338.944 371.712c-12.288 13.312-33.792 13.312-46.080 0s-13.312-33.792 0-47.104l360.448-395.264c7.168-7.168 16.384-10.24 24.576-10.24 9.216 0 18.432 3.072 25.6 10.24l360.448 395.264c13.312 13.312 13.312 34.816 0 47.104z" horiz-adv-x="792" />
<glyph unicode="&#xe835;" d="M908.288 431.616l-183.296-182.272v411.648c0 23.552-18.432 41.984-41.984 41.984s-43.008-18.432-43.008-41.984v-410.624l-182.272 181.248c-16.384 16.384-44.032 16.384-60.416 0s-16.384-44.032 0-60.416l253.952-252.928c8.192-8.192 20.48-12.288 31.744-11.264 12.288-1.024 23.552 3.072 32.768 11.264l253.952 252.928c16.384 16.384 16.384 44.032 0 60.416-17.408 16.384-44.032 16.384-61.44 0zM984.064 745.984c-62.464 126.976-192.512 214.016-344.064 214.016-202.752 0-368.64-156.672-382.976-356.352-148.48-41.984-257.024-172.032-257.024-326.656 0-181.248 151.552-329.728 340.992-339.968l726.016-1.024c146.432 63.488 297.984 240.64 297.984 405.504 0 216.064-167.936 391.168-380.928 404.48zM1067.008 20.992h-726.016c0 0-257.024 26.624-256 256 1.024 130.048 114.688 248.832 256 256 0 177.152 113.664 342.016 299.008 342.016 146.432 0 244.736-90.112 278.528-214.016 211.968 9.216 355.328-157.696 361.472-297.984 6.144-120.832-99.328-276.48-212.992-342.016z" horiz-adv-x="1366" />
<glyph unicode="&#xe836;" d="M832.512 960h-704.512c-70.656 0-128-57.344-128-128v-768c0-70.656 57.344-128 128-128h704.512c70.656 0 128 57.344 128 128v768c0 70.656-57.344 128-128 128zM896 64c0-35.84-28.672-64.512-63.488-64.512h-704.512c-34.816 0-63.488 28.672-63.488 64.512v64.512h831.488v-64.512zM896 192h-831.488v640c0 35.84 28.672 64.512 63.488 64.512h704.512c34.816 0 63.488-28.672 63.488-64.512v-640zM616.448 535.040l-104.448-126.976v392.192c0 17.408-14.336 31.744-31.744 31.744s-31.744-14.336-31.744-31.744v-393.216l-106.496 128c-12.288 12.288-32.768 12.288-45.056 0s-12.288-32.768 0-46.080l158.72-190.464c6.144-7.168 15.36-10.24 23.552-9.216 9.216-1.024 18.432 2.048 24.576 9.216l157.696 190.464c13.312 13.312 13.312 33.792 0 46.080s-32.768 12.288-45.056 0z" horiz-adv-x="959" />
<glyph unicode="&#xe837;" d="M758.784 239.104l-129.024-155.648v561.152c0 22.528-17.408 39.936-38.912 39.936s-39.936-17.408-39.936-39.936v-563.2l-129.024 157.696c-16.384 15.36-40.96 15.36-56.32 0s-15.36-39.936 0-56.32l194.56-235.52c8.192-8.192 19.456-12.288 29.696-11.264 11.264-1.024 21.504 3.072 29.696 11.264l195.584 235.52c15.36 16.384 15.36 40.96 0 56.32s-40.96 15.36-56.32 0zM1141.76 960h-1101.824c-22.528 0-39.936-17.408-39.936-38.912v-315.392c0-21.504 17.408-39.936 39.936-39.936 21.504 0 38.912 18.432 38.912 39.936v275.456h1024v-275.456c0-21.504 17.408-39.936 38.912-39.936s39.936 18.432 39.936 39.936v315.392c0 21.504-18.432 38.912-39.936 38.912z" horiz-adv-x="1182" />
<glyph unicode="&#xe838;" d="M487.424 202.24c6.144-7.168 15.36-9.216 24.576-9.216 8.192 0 17.408 2.048 23.552 9.216l158.72 191.488c12.288 12.288 12.288 32.768 0 45.056-13.312 13.312-32.768 13.312-46.080 0l-104.448-125.952v487.424c0 17.408-14.336 31.744-31.744 31.744s-31.744-14.336-31.744-31.744v-488.448l-105.472 126.976c-13.312 13.312-32.768 13.312-46.080 0-12.288-12.288-12.288-32.768 0-45.056l158.72-191.488zM896 960h-768c-70.656 0-128-57.344-128-128v-768c0-70.656 57.344-128 128-128h768c70.656 0 128 57.344 128 128v768c0 70.656-57.344 128-128 128zM960.512 64c0-35.84-28.672-64.512-64.512-64.512h-768c-34.816 0-63.488 28.672-63.488 64.512v768c0 35.84 28.672 64.512 63.488 64.512h768c35.84 0 64.512-28.672 64.512-64.512v-768zM799.744 128.512h-575.488c-17.408 0-31.744-14.336-31.744-32.768s14.336-31.744 31.744-31.744h575.488c18.432 0 32.768 14.336 32.768 31.744s-14.336 32.768-32.768 32.768z" />
<glyph unicode="&#xe839;" d="M675.84 465.408l-132.096-132.096v338.944c0 17.408-14.336 31.744-31.744 31.744s-31.744-14.336-31.744-31.744v-338.944l-132.096 132.096c-12.288 12.288-32.768 12.288-45.056 0s-12.288-32.768 0-45.056l181.248-181.248c7.168-8.192 17.408-10.24 27.648-8.192 10.24-2.048 20.48 0 28.672 8.192l180.224 181.248c13.312 12.288 13.312 32.768 0 45.056-12.288 12.288-32.768 12.288-45.056 0zM512 960c-282.624 0-512-229.376-512-512s229.376-512 512-512c282.624 0 512 229.376 512 512s-229.376 512-512 512zM512-0.512c-247.808 0-447.488 200.704-447.488 448.512s199.68 448.512 447.488 448.512c247.808 0 448.512-200.704 448.512-448.512s-200.704-448.512-448.512-448.512z" />
<glyph unicode="&#xe83a;" d="M811.008 491.008h-171.008l66.56 177.152c9.216 22.528-2.048 47.104-23.552 56.32s-46.080-1.024-55.296-23.552l-98.304-236.544c-4.096-11.264-3.072-23.552 1.024-33.792 6.144-15.36 21.504-26.624 39.936-26.624l181.248 1.024-108.544-192.512c-9.216-22.528 0-48.128 20.48-58.368s45.056-1.024 54.272 21.504c0 0 135.168 246.784 135.168 272.384 0 23.552-18.432 43.008-41.984 43.008zM984.064 745.984c-62.464 126.976-192.512 214.016-344.064 214.016-202.752 0-368.64-156.672-382.976-356.352-148.48-41.984-257.024-172.032-257.024-326.656 0-181.248 151.552-329.728 340.992-339.968 0 0 590.848-1.024 598.016-1.024 223.232 0 425.984 181.248 425.984 405.504 0 216.064-167.936 391.168-380.928 404.48zM939.008 20.992c-6.144 0-598.016 0-598.016 0s-257.024 26.624-256 256c1.024 130.048 120.832 245.76 256 256 0 177.152 113.664 342.016 299.008 342.016 146.432 0 244.736-90.112 278.528-214.016 211.968 9.216 355.328-157.696 361.472-297.984 9.216-188.416-187.392-342.016-340.992-342.016z" horiz-adv-x="1366" />
<glyph unicode="&#xe83b;" d="M1303.552 960h-1117.184c-103.424 0-186.368-82.944-186.368-186.368v-651.264c0-103.424 82.944-186.368 186.368-186.368h1117.184c102.4 0 186.368 82.944 186.368 186.368v651.264c0 103.424-83.968 186.368-186.368 186.368zM1396.736 122.368c0-51.2-41.984-93.184-93.184-93.184h-1117.184c-51.2 0-93.184 41.984-93.184 93.184v651.264c0 51.2 41.984 93.184 93.184 93.184h1117.184c51.2 0 93.184-41.984 93.184-93.184v-651.264zM232.448 495.104c-25.6 0-46.080-21.504-46.080-47.104s20.48-46.080 46.080-46.080c25.6 0 47.104 20.48 47.104 46.080s-21.504 47.104-47.104 47.104zM232.448 308.736c-25.6 0-46.080-21.504-46.080-47.104s20.48-46.080 46.080-46.080c25.6 0 47.104 20.48 47.104 46.080s-21.504 47.104-47.104 47.104zM1256.448 308.736c-25.6 0-46.080-21.504-46.080-47.104s20.48-46.080 46.080-46.080c25.6 0 47.104 20.48 47.104 46.080s-21.504 47.104-47.104 47.104zM1256.448 495.104c-25.6 0-46.080-21.504-46.080-47.104s20.48-46.080 46.080-46.080c25.6 0 47.104 20.48 47.104 46.080s-21.504 47.104-47.104 47.104zM1071.104 773.632h-652.288c-25.6 0-46.080-20.48-46.080-46.080v-559.104c0-25.6 20.48-46.080 46.080-46.080h652.288c25.6 0 46.080 20.48 46.080 46.080v559.104c0 25.6-20.48 46.080-46.080 46.080zM1024 261.632c0-25.6-20.48-46.080-46.080-46.080h-465.92c-25.6 0-46.080 20.48-46.080 46.080v372.736c0 25.6 20.48 46.080 46.080 46.080h465.92c25.6 0 46.080-20.48 46.080-46.080v-372.736z" horiz-adv-x="1490" />
<glyph unicode="&#xe83c;" d="M1195.008 960h-1024c-94.208 0-171.008-76.8-171.008-171.008v-681.984c0-94.208 76.8-171.008 171.008-171.008h1024c94.208 0 169.984 76.8 169.984 171.008v681.984c0 94.208-75.776 171.008-169.984 171.008zM1236.992 875.008l-553.984-427.008-555.008 427.008h1108.992zM84.992 107.008v681.984l384-297.984-379.904-408.576c-2.048 7.168-4.096 15.36-4.096 24.576zM151.552 23.040l385.024 410.624 146.432-109.568 139.264 110.592 391.168-410.624c-6.144-2.048-1055.744-2.048-1061.888-1.024zM1275.904 81.408l-379.904 409.6 384 297.984v-681.984c0-9.216-2.048-17.408-4.096-25.6z" horiz-adv-x="1366" />
<glyph unicode="&#xe83d;" d="M832.512 960h-704.512c-70.656 0-128-57.344-128-128v-768c0-70.656 57.344-128 128-128h704.512c70.656 0 128 57.344 128 128v768c0 70.656-57.344 128-128 128zM128 896.512h704.512c12.288 0 24.576-4.096 33.792-10.24l-130.048-117.76h-512l-131.072 117.76c10.24 6.144 22.528 10.24 34.816 10.24zM896 64c0-35.84-28.672-64.512-63.488-64.512h-704.512c-34.816 0-63.488 28.672-63.488 64.512v760.832l128-120.832h575.488l128 120.832v-760.832z" horiz-adv-x="959" />
<glyph unicode="&#xe83e;" d="M219.136 517.632v405.504c0 20.48-16.384 36.864-35.84 36.864s-36.864-16.384-36.864-36.864v-405.504c-83.968-17.408-146.432-91.136-146.432-179.2s62.464-162.816 146.432-179.2v-186.368c0-20.48 16.384-36.864 36.864-36.864s35.84 16.384 35.84 36.864v186.368c83.968 16.384 146.432 91.136 146.432 179.2s-62.464 161.792-146.432 179.2zM183.296 228.864c-61.44 0-110.592 49.152-110.592 109.568s49.152 109.568 110.592 109.568 109.568-49.152 109.568-109.568c0-60.416-49.152-109.568-109.568-109.568zM584.704 883.2v39.936c0 20.48-16.384 36.864-35.84 36.864-20.48 0-36.864-16.384-36.864-36.864v-39.936c-82.944-17.408-146.432-91.136-146.432-179.2s63.488-161.792 146.432-179.2v-551.936c0-20.48 16.384-36.864 36.864-36.864 19.456 0 35.84 16.384 35.84 36.864v551.936c83.968 17.408 146.432 91.136 146.432 179.2s-62.464 161.792-146.432 179.2zM548.864 594.432c-60.416 0-109.568 49.152-109.568 109.568s49.152 109.568 109.568 109.568c60.416 0 109.568-49.152 109.568-109.568s-49.152-109.568-109.568-109.568zM951.296 371.2v551.936c0 20.48-16.384 36.864-36.864 36.864s-36.864-16.384-36.864-36.864v-551.936c-82.944-17.408-146.432-91.136-146.432-179.2s63.488-161.792 146.432-179.2v-39.936c0-20.48 16.384-36.864 36.864-36.864s36.864 16.384 36.864 36.864v39.936c82.944 17.408 145.408 91.136 145.408 179.2s-62.464 161.792-145.408 179.2zM914.432 82.432c-60.416 0-109.568 49.152-109.568 109.568s49.152 109.568 109.568 109.568c60.416 0 109.568-49.152 109.568-109.568s-49.152-109.568-109.568-109.568z" horiz-adv-x="1098" />
<glyph unicode="&#xe83f;" d="M832.512 704h-357.376c-14.336 55.296-63.488 96.256-122.88 96.256s-109.568-40.96-123.904-96.256h-35.84c-18.432 0-32.768-14.336-32.768-31.744s14.336-31.744 32.768-31.744h35.84c14.336-55.296 64.512-96.256 123.904-96.256s108.544 40.96 122.88 96.256h357.376c17.408 0 31.744 14.336 31.744 31.744s-14.336 31.744-31.744 31.744zM352.256 595.456c-43.008 0-76.8 33.792-76.8 76.8 0 41.984 33.792 76.8 76.8 76.8 41.984 0 76.8-34.816 76.8-76.8 0-43.008-34.816-76.8-76.8-76.8zM832.512 192h-357.376c-14.336 55.296-63.488 96.256-122.88 96.256s-109.568-40.96-123.904-96.256h-35.84c-18.432 0-32.768-14.336-32.768-31.744s14.336-31.744 32.768-31.744h35.84c14.336-55.296 64.512-96.256 123.904-96.256s108.544 40.96 122.88 96.256h357.376c17.408 0 31.744 14.336 31.744 31.744s-14.336 31.744-31.744 31.744zM352.256 83.456c-43.008 0-76.8 33.792-76.8 76.8 0 41.984 33.792 76.8 76.8 76.8 41.984 0 76.8-34.816 76.8-76.8 0-43.008-34.816-76.8-76.8-76.8zM832.512 448h-68.608c-14.336 55.296-64.512 96.256-123.904 96.256s-109.568-40.96-123.904-96.256h-323.584c-18.432 0-32.768-14.336-32.768-31.744s14.336-31.744 32.768-31.744h323.584c14.336-55.296 64.512-96.256 123.904-96.256s109.568 40.96 123.904 96.256h68.608c17.408 0 31.744 14.336 31.744 31.744s-14.336 31.744-31.744 31.744zM640 339.456c-41.984 0-76.8 33.792-76.8 76.8 0 41.984 34.816 76.8 76.8 76.8s76.8-34.816 76.8-76.8c0-43.008-34.816-76.8-76.8-76.8zM896 960h-768c-70.656 0-128-57.344-128-128v-768c0-70.656 57.344-128 128-128h768c70.656 0 128 57.344 128 128v768c0 70.656-57.344 128-128 128zM960.512 64c0-35.84-28.672-64.512-64.512-64.512h-768c-34.816 0-63.488 28.672-63.488 64.512v768c0 35.84 28.672 64.512 63.488 64.512h768c35.84 0 64.512-28.672 64.512-64.512v-768z" />
<glyph unicode="&#xe840;" d="M832.512 960h-704.512c-70.656 0-128-57.344-128-128v-768c0-70.656 57.344-128 128-128h704.512c70.656 0 128 57.344 128 128v768c0 70.656-57.344 128-128 128zM896 64c0-35.84-28.672-64.512-63.488-64.512h-704.512c-34.816 0-63.488 28.672-63.488 64.512v640h831.488v-640zM896 768.512h-831.488v63.488c0 35.84 28.672 64.512 63.488 64.512h704.512c34.816 0 63.488-28.672 63.488-64.512v-63.488zM736.256 384.512c53.248 0 96.256 43.008 96.256 95.232 0 53.248-43.008 96.256-96.256 96.256s-96.256-43.008-96.256-96.256c0-52.224 43.008-95.232 96.256-95.232zM704.512 512.512h63.488v-64.512h-63.488v64.512zM736.256 128.512c53.248 0 96.256 43.008 96.256 95.232 0 53.248-43.008 96.256-96.256 96.256s-96.256-43.008-96.256-96.256c0-52.224 43.008-95.232 96.256-95.232zM704.512 256.512h63.488v-64.512h-63.488v64.512zM224.256 384.512c53.248 0 96.256 43.008 96.256 95.232 0 53.248-43.008 96.256-96.256 96.256s-96.256-43.008-96.256-96.256c0-52.224 43.008-95.232 96.256-95.232zM192.512 512.512h63.488v-64.512h-63.488v64.512zM480.256 384.512c53.248 0 96.256 43.008 96.256 95.232 0 53.248-43.008 96.256-96.256 96.256s-96.256-43.008-96.256-96.256c0-52.224 43.008-95.232 96.256-95.232zM448.512 512.512h63.488v-64.512h-63.488v64.512zM224.256 128.512c53.248 0 96.256 43.008 96.256 95.232 0 53.248-43.008 96.256-96.256 96.256s-96.256-43.008-96.256-96.256c0-52.224 43.008-95.232 96.256-95.232zM192.512 256.512h63.488v-64.512h-63.488v64.512zM480.256 128.512c53.248 0 96.256 43.008 96.256 95.232 0 53.248-43.008 96.256-96.256 96.256s-96.256-43.008-96.256-96.256c0-52.224 43.008-95.232 96.256-95.232zM448.512 256.512h63.488v-64.512h-63.488v64.512z" horiz-adv-x="959" />
<glyph unicode="&#xe841;" d="M448.512 128.512h-212.992l218.112 217.088-45.056 45.056-217.088-217.088 1.024 210.944c0 17.408-14.336 31.744-32.768 31.744s-31.744-14.336-31.744-31.744v-288.768c0-9.216 4.096-17.408 10.24-22.528s13.312-9.216 22.528-9.216h287.744c17.408 0 31.744 14.336 31.744 31.744 0 18.432-14.336 32.768-31.744 32.768zM896 960h-768c-70.656 0-128-57.344-128-128v-768c0-70.656 57.344-128 128-128h768c70.656 0 128 57.344 128 128v768c0 70.656-57.344 128-128 128zM960.512 64c0-35.84-28.672-64.512-64.512-64.512h-768c-34.816 0-63.488 28.672-63.488 64.512v768c0 35.84 28.672 64.512 63.488 64.512h768c35.84 0 64.512-28.672 64.512-64.512v-768zM863.232 832h-286.72c-18.432 0-32.768-14.336-32.768-31.744s14.336-31.744 32.768-31.744h211.968l-218.112-218.112 45.056-45.056 218.112 217.088-1.024-209.92c0-18.432 14.336-32.768 31.744-32.768s31.744 14.336 31.744 32.768v287.744c0 9.216-4.096 17.408-10.24 22.528-5.12 5.12-13.312 9.216-22.528 9.216z" />
<glyph unicode="&#xe842;" d="M408.576 390.656l-345.088-345.088 1.024 210.944c0 17.408-14.336 31.744-32.768 31.744-17.408 0-31.744-14.336-31.744-31.744v-288.768c0-9.216 4.096-16.384 10.24-22.528 6.144-5.12 13.312-9.216 22.528-9.216h287.744c17.408 0 31.744 14.336 31.744 31.744s-14.336 31.744-31.744 31.744h-212.992l346.112 346.112-45.056 45.056zM1013.76 950.784c-6.144 5.12-13.312 9.216-22.528 9.216h-286.72c-18.432 0-32.768-14.336-32.768-31.744s14.336-31.744 32.768-31.744h211.968l-346.112-346.112 45.056-45.056 346.112 345.088-1.024-209.92c0-18.432 14.336-32.768 31.744-32.768s31.744 14.336 31.744 32.768v287.744c0 9.216-4.096 17.408-10.24 22.528z" />
<glyph unicode="&#xe843;" d="M1150.976 499.2l-622.592 446.464c-40.96 22.528-88.064 27.648-88.064-57.344v-194.56l-351.232 251.904c-41.984 22.528-90.112 23.552-89.088-59.392v-877.568c1.024-74.752 51.2-84.992 89.088-61.44l351.232 252.928v-192.512c0-72.704 50.176-83.968 88.064-60.416l622.592 446.464c25.6 19.456 27.648 87.040 0 105.472zM513.024 36.352c0 17.408 0 308.224 0 308.224l-439.296-308.224v821.248l439.296-308.224c0 0 0 242.688 0 308.224l586.752-410.624-586.752-410.624z" horiz-adv-x="1169" />
<glyph unicode="&#xe844;" d="M1024 567.808l-353.28 54.272-158.72 337.92-158.72-337.92-353.28-54.272 256-261.12-60.416-370.688 316.416 175.104 317.44-175.104-61.44 370.688 256 261.12zM512 184.832l-237.568-133.12 45.056 269.312-204.8 208.896 277.504 35.84 119.808 256 118.784-256 276.48-38.912-202.752-206.848 41.984-269.312-234.496 134.144z" />
<glyph unicode="&#xe845;" d="M575.488 960v-1.024c-4.096 0-20.48 2.048-63.488 1.024h-384c-70.656 0-128-57.344-128-128v-768c0-70.656 57.344-128 128-128h575.488c70.656 0 128 57.344 128 128v640l-256 256zM768 64c0-35.84-28.672-64.512-64.512-64.512h-575.488c-34.816 0-63.488 28.672-63.488 64.512v768c0 34.816 28.672 63.488 63.488 63.488h382.976c0-75.776 1.024-128 1.024-128 0-70.656 57.344-128 128-128 0 0 53.248 0 128 0v-575.488zM640 704c-35.84 0-64.512 28.672-64.512 63.488 0 0 0 52.224 0 128l192.512-191.488h-128z" horiz-adv-x="831" />
<glyph unicode="&#xe846;" d="M608.256 256.512h-384c-17.408 0-31.744-14.336-31.744-32.768 0-17.408 14.336-31.744 31.744-31.744h384c17.408 0 31.744 14.336 31.744 31.744 0 18.432-14.336 32.768-31.744 32.768zM575.488 960v-1.024c-4.096 0-20.48 2.048-63.488 1.024h-384c-70.656 0-128-57.344-128-128v-768c0-70.656 57.344-128 128-128h575.488c70.656 0 128 57.344 128 128v640l-256 256zM768 64c0-35.84-28.672-64.512-64.512-64.512h-575.488c-34.816 0-63.488 28.672-63.488 64.512v768c0 34.816 28.672 63.488 63.488 63.488h382.976c0-75.776 1.024-128 1.024-128 0-70.656 57.344-128 128-128 0 0 53.248 0 128 0v-575.488zM640 704c-35.84 0-64.512 28.672-64.512 63.488 0 0 0 52.224 0 128l192.512-191.488h-128zM608.256 448h-384c-17.408 0-31.744-14.336-31.744-31.744 0-18.432 14.336-32.768 31.744-32.768h384c17.408 0 31.744 14.336 31.744 32.768 0 17.408-14.336 31.744-31.744 31.744z" horiz-adv-x="831" />
<glyph unicode="&#xe847;" d="M683.008 960h-546.816c-74.752 0-136.192-61.44-136.192-136.192v-887.808c79.872 0 61.44 0 136.192 0h546.816c74.752 0 31.744 0 136.192 0v887.808c0 74.752-61.44 136.192-136.192 136.192zM136.192 4.608h-67.584v67.584h67.584v-67.584zM136.192 140.8h-67.584v68.608h67.584v-68.608zM136.192 276.992h-67.584v68.608h67.584v-68.608zM136.192 414.208h-67.584v67.584h67.584v-67.584zM136.192 550.4h-67.584v68.608h67.584v-68.608zM136.192 686.592h-67.584v68.608h67.584v-68.608zM614.4 38.4c0-18.432-15.36-33.792-33.792-33.792h-342.016c-18.432 0-33.792 15.36-33.792 33.792v340.992c0 19.456 15.36 34.816 33.792 34.816h342.016c18.432 0 33.792-15.36 33.792-34.816v-340.992zM614.4 516.608c0-19.456-15.36-34.816-33.792-34.816h-342.016c-18.432 0-33.792 15.36-33.792 34.816v340.992c0 18.432 15.36 33.792 33.792 33.792h342.016c18.432 0 33.792-15.36 33.792-33.792v-340.992zM750.592 4.608h-67.584v67.584h67.584v-67.584zM750.592 140.8h-67.584v68.608h67.584v-68.608zM750.592 276.992h-67.584v68.608h67.584v-68.608zM750.592 414.208h-67.584v67.584h67.584v-67.584zM750.592 550.4h-67.584v68.608h67.584v-68.608zM750.592 686.592h-67.584v68.608h67.584v-68.608z" horiz-adv-x="819" />
<glyph unicode="&#xe848;" d="M736.256 735.744h-192.512v64.512c0 34.816-28.672 63.488-63.488 63.488h-287.744v32.768c0 34.816-28.672 63.488-64.512 63.488h-63.488c-35.84 0-64.512-28.672-64.512-63.488v-897.024c0-34.816 28.672-63.488 64.512-63.488h63.488c35.84 0 64.512 28.672 64.512 63.488v288.768h287.744v-31.744c0-35.84 29.696-64.512 63.488-64.512h192.512c34.816 0 63.488 28.672 63.488 64.512v415.744c0 34.816-28.672 63.488-63.488 63.488zM128 32.256c0-18.432-14.336-32.768-31.744-32.768s-31.744 14.336-31.744 32.768v831.488c0 18.432 14.336 32.768 31.744 32.768s31.744-14.336 31.744-32.768v-831.488zM480.256 384.512c0-18.432-14.336-32.768-31.744-32.768h-256v448.512h256c17.408 0 31.744-14.336 31.744-31.744v-384zM736.256 288.256c0-17.408-14.336-31.744-31.744-31.744h-160.768v415.744h160.768c17.408 0 31.744-14.336 31.744-31.744v-352.256z" horiz-adv-x="800" />
<glyph unicode="&#xe849;" d="M580.608 4.608h-342.016c-18.432 0-33.792-15.36-33.792-34.816 0-18.432 15.36-33.792 33.792-33.792h342.016c18.432 0 33.792 15.36 33.792 33.792 0 19.456-15.36 34.816-33.792 34.816zM1057.792 276.992h-496.64c-9.216 38.912-15.36 78.848-15.36 119.808 0 234.496 153.6 433.152 365.568 502.784-73.728 38.912-156.672 60.416-245.76 60.416-291.84 0-529.408-236.544-529.408-529.408 0-53.248 8.192-104.448 23.552-153.6h-125.952c-18.432 0-33.792-15.36-33.792-33.792s15.36-33.792 33.792-33.792h1024c19.456 0 34.816 15.36 34.816 33.792s-15.36 33.792-34.816 33.792zM238.592 276.992c-23.552 55.296-33.792 95.232-33.792 146.432 0 277.504 149.504 364.544 273.408 434.176 90.112 43.008 201.728 52.224 272.384 33.792-139.264-65.536-274.432-277.504-274.432-500.736 0-38.912 3.072-76.8 9.216-113.664h-246.784zM648.192 140.8h-477.184c-19.456 0-34.816-15.36-34.816-33.792 0-19.456 15.36-34.816 34.816-34.816h477.184c19.456 0 34.816 15.36 34.816 34.816 0 18.432-15.36 33.792-34.816 33.792z" horiz-adv-x="1092" />
<glyph unicode="&#xe84a;" d="M190.464 375.296c34.816 166.912 181.248 291.84 358.4 291.84s323.584-124.928 357.376-291.84h76.8c-27.648 205.824-211.968 365.568-434.176 365.568-223.232 0-406.528-159.744-435.2-365.568h76.8zM109.568 652.8c14.336-14.336 37.888-14.336 52.224 0s14.336 36.864 0 51.2l-52.224 52.224c-14.336 14.336-36.864 14.336-51.2 0s-14.336-37.888 0-52.224l51.2-51.2zM987.136 652.8l52.224 51.2c14.336 14.336 14.336 37.888 0 52.224s-37.888 14.336-52.224 0l-51.2-52.224c-14.336-14.336-14.336-37.888 0-51.2 14.336-14.336 36.864-14.336 51.2 0zM548.864 813.568c19.456 0 35.84 16.384 35.84 36.864v72.704c0 20.48-16.384 36.864-35.84 36.864-20.48 0-36.864-16.384-36.864-36.864v-72.704c0-20.48 16.384-36.864 36.864-36.864zM1060.864 301.568h-1024c-20.48 0-36.864-16.384-36.864-36.864 0-19.456 16.384-35.84 36.864-35.84h1024c19.456 0 35.84 16.384 35.84 35.84 0 20.48-16.384 36.864-35.84 36.864zM914.432 8.704h-731.136c-20.48 0-36.864-16.384-36.864-35.84s16.384-36.864 36.864-36.864h731.136c20.48 0 36.864 16.384 36.864 36.864s-16.384 35.84-36.864 35.84zM1024 155.136h-951.296c-19.456 0-35.84-16.384-35.84-35.84 0-20.48 16.384-36.864 35.84-36.864h951.296c20.48 0 36.864 16.384 36.864 36.864 0 19.456-16.384 35.84-36.864 35.84z" horiz-adv-x="1098" />
<glyph unicode="&#xe84b;" d="M896 832h-447.488c0 70.656-57.344 128-128 128h-192.512c-70.656 0-128-57.344-128-128v-768c0-70.656 57.344-128 128-128h768c70.656 0 128 57.344 128 128v640c0 70.656-57.344 128-128 128zM960.512 64c0-35.84-28.672-64.512-64.512-64.512h-768c-34.816 0-63.488 28.672-63.488 64.512v512h896v-512zM960.512 640.512h-896v191.488c0 35.84 28.672 64.512 63.488 64.512h192.512c34.816 0 63.488-28.672 63.488-64.512v-63.488h512c35.84 0 64.512-28.672 64.512-64.512v-63.488z" />
<glyph unicode="&#xe84c;" d="M287.744 960c-17.408 0-31.744-14.336-31.744-31.744v-224.256c0-45.056-26.624-75.776-63.488-90.112v314.368c0 17.408-14.336 31.744-32.768 31.744-17.408 0-31.744-14.336-31.744-31.744v-314.368c-36.864 14.336-63.488 45.056-63.488 90.112v224.256c0 17.408-14.336 31.744-32.768 31.744s-31.744-14.336-31.744-31.744v-224.256c0-77.824 55.296-142.336 128-156.672v-579.584c0-17.408 14.336-31.744 31.744-31.744 18.432 0 32.768 14.336 32.768 31.744v579.584c72.704 14.336 128 78.848 128 156.672v224.256c0 17.408-14.336 31.744-32.768 31.744z" horiz-adv-x="319" />
<glyph unicode="&#xe84d;" d="M292.864 375.296h-146.432c-80.896 0-146.432-65.536-146.432-146.432v-146.432c0-80.896 65.536-146.432 146.432-146.432h146.432c80.896 0 146.432 65.536 146.432 146.432v146.432c0 80.896-65.536 146.432-146.432 146.432zM365.568 82.432c0-40.96-32.768-73.728-72.704-73.728h-146.432c-40.96 0-73.728 32.768-73.728 73.728v146.432c0 39.936 32.768 72.704 73.728 72.704h146.432c39.936 0 72.704-32.768 72.704-72.704v-146.432zM877.568 960h-146.432c-80.896 0-146.432-65.536-146.432-146.432v-146.432c0-80.896 65.536-146.432 146.432-146.432h146.432c80.896 0 146.432 65.536 146.432 146.432v146.432c0 80.896-65.536 146.432-146.432 146.432zM951.296 667.136c0-39.936-32.768-72.704-73.728-72.704h-146.432c-39.936 0-72.704 32.768-72.704 72.704v146.432c0 40.96 32.768 73.728 72.704 73.728h146.432c40.96 0 73.728-32.768 73.728-73.728v-146.432zM877.568 375.296h-146.432c-80.896 0-146.432-65.536-146.432-146.432v-146.432c0-80.896 65.536-146.432 146.432-146.432h146.432c80.896 0 146.432 65.536 146.432 146.432v146.432c0 80.896-65.536 146.432-146.432 146.432zM951.296 82.432c0-40.96-32.768-73.728-73.728-73.728h-146.432c-39.936 0-72.704 32.768-72.704 73.728v146.432c0 39.936 32.768 72.704 72.704 72.704h146.432c40.96 0 73.728-32.768 73.728-72.704v-146.432zM292.864 960h-146.432c-80.896 0-146.432-65.536-146.432-146.432v-146.432c0-80.896 65.536-146.432 146.432-146.432h146.432c80.896 0 146.432 65.536 146.432 146.432v146.432c0 80.896-65.536 146.432-146.432 146.432zM365.568 667.136c0-39.936-32.768-72.704-72.704-72.704h-146.432c-40.96 0-73.728 32.768-73.728 72.704v146.432c0 40.96 32.768 73.728 73.728 73.728h146.432c39.936 0 72.704-32.768 72.704-73.728v-146.432z" />
<glyph unicode="&#xe84e;" d="M408.576 390.656l-153.6-152.576 1.024 81.92c0 17.408-14.336 31.744-31.744 31.744s-31.744-14.336-31.744-31.744v-159.744c0-9.216 3.072-17.408 9.216-22.528 6.144-6.144 14.336-9.216 23.552-9.216h158.72c17.408 0 31.744 14.336 31.744 31.744s-14.336 31.744-31.744 31.744h-83.968l153.6 153.6-45.056 45.056zM384 704c17.408 0 31.744 14.336 31.744 31.744 0 18.432-14.336 32.768-31.744 32.768h-158.72c-9.216 0-17.408-4.096-23.552-10.24-6.144-5.12-9.216-12.288-9.216-22.528v-159.744c0-17.408 14.336-31.744 31.744-31.744s31.744 14.336 31.744 31.744l-1.024 81.92 153.6-152.576 45.056 45.056-153.6 153.6h83.968zM799.744 351.744c-17.408 0-31.744-14.336-31.744-31.744l1.024-81.92-153.6 152.576-45.056-45.056 153.6-153.6h-83.968c-17.408 0-31.744-14.336-31.744-31.744s14.336-31.744 31.744-31.744h158.72c9.216 0 17.408 3.072 23.552 9.216 6.144 5.12 10.24 13.312 10.24 22.528v159.744c0 17.408-14.336 31.744-32.768 31.744zM798.72 768.512h-158.72c-17.408 0-31.744-14.336-31.744-32.768 0-17.408 14.336-31.744 31.744-31.744h83.968l-153.6-153.6 45.056-45.056 153.6 152.576-1.024-81.92c0-17.408 14.336-31.744 31.744-31.744 18.432 0 32.768 14.336 32.768 31.744v159.744c0 10.24-4.096 17.408-10.24 22.528-6.144 6.144-14.336 10.24-23.552 10.24zM896 960h-768c-70.656 0-128-57.344-128-128v-768c0-70.656 57.344-128 128-128h768c70.656 0 128 57.344 128 128v768c0 70.656-57.344 128-128 128zM960.512 64c0-35.84-28.672-64.512-64.512-64.512h-768c-34.816 0-63.488 28.672-63.488 64.512v768c0 35.84 28.672 64.512 63.488 64.512h768c35.84 0 64.512-28.672 64.512-64.512v-768z" />
<glyph unicode="&#xe84f;" d="M480.256 128.512c-17.408 0-31.744-14.336-31.744-32.768 0-17.408 14.336-31.744 31.744-31.744s31.744 14.336 31.744 31.744c0 18.432-14.336 32.768-31.744 32.768zM512 256.512c-17.408 0-31.744-14.336-31.744-32.768 0-17.408 14.336-31.744 31.744-31.744s31.744 14.336 31.744 31.744c0 18.432-14.336 32.768-31.744 32.768zM287.744 192h-31.744v31.744c0 18.432-14.336 32.768-31.744 32.768s-31.744-14.336-31.744-32.768v-31.744h-32.768c-17.408 0-31.744-14.336-31.744-31.744s14.336-31.744 31.744-31.744h32.768v-32.768c0-17.408 14.336-31.744 31.744-31.744s31.744 14.336 31.744 31.744v32.768h31.744c18.432 0 32.768 14.336 32.768 31.744s-14.336 31.744-32.768 31.744zM704.512 960h-576.512c-70.656 0-128-57.344-128-128v-768c0-70.656 57.344-128 128-128h576.512c70.656 0 128 57.344 128 128v768c0 70.656-57.344 128-128 128zM768 64c0-35.84-28.672-64.512-63.488-64.512h-576.512c-34.816 0-63.488 28.672-63.488 64.512v768c0 35.84 28.672 64.512 63.488 64.512h576.512c34.816 0 63.488-28.672 63.488-64.512v-768zM640 128.512c-17.408 0-31.744-14.336-31.744-32.768 0-17.408 14.336-31.744 31.744-31.744s31.744 14.336 31.744 31.744c0 18.432-14.336 32.768-31.744 32.768zM640 832h-447.488c-35.84 0-64.512-28.672-64.512-63.488v-384c0-35.84 28.672-64.512 64.512-64.512h447.488c35.84 0 64.512 28.672 64.512 64.512v384c0 34.816-28.672 63.488-64.512 63.488zM640 416.256c0-17.408-14.336-31.744-31.744-31.744h-384c-17.408 0-31.744 14.336-31.744 31.744v319.488c0 18.432 14.336 32.768 31.744 32.768h384c17.408 0 31.744-14.336 31.744-32.768v-319.488zM671.744 256.512c-17.408 0-31.744-14.336-31.744-32.768 0-17.408 14.336-31.744 31.744-31.744s32.768 14.336 32.768 31.744c0 18.432-14.336 32.768-32.768 32.768z" horiz-adv-x="831" />
<glyph unicode="&#xe850;" d="M990.208 327.168l-78.848 46.080c4.096 24.576 7.168 49.152 7.168 74.752s-3.072 50.176-7.168 74.752l78.848 46.080c32.768 18.432 43.008 60.416 24.576 93.184l-67.584 117.76c-18.432 32.768-60.416 44.032-92.16 25.6l-79.872-47.104c-37.888 32.768-80.896 58.368-128 75.776v57.344c0 37.888-29.696 68.608-67.584 68.608h-135.168c-37.888 0-67.584-30.72-67.584-68.608v-57.344c-47.104-17.408-90.112-43.008-126.976-75.776l-80.896 47.104c-31.744 18.432-73.728 7.168-92.16-25.6l-67.584-117.76c-18.432-32.768-8.192-74.752 24.576-93.184l79.872-46.080c-5.12-24.576-8.192-49.152-8.192-74.752s3.072-50.176 8.192-74.752l-79.872-46.080c-32.768-18.432-43.008-60.416-24.576-93.184l67.584-117.76c18.432-32.768 60.416-44.032 92.16-25.6l80.896 47.104c36.864-32.768 79.872-58.368 126.976-75.776v-57.344c0-37.888 29.696-68.608 67.584-68.608h135.168c37.888 0 67.584 30.72 67.584 68.608v57.344c47.104 17.408 90.112 43.008 126.976 75.776l80.896-47.104c31.744-18.432 73.728-7.168 92.16 25.6l67.584 117.76c18.432 32.768 8.192 74.752-24.576 93.184zM939.008 239.104l-33.792-59.392c-9.216-16.384-29.696-22.528-46.080-12.288l-94.208 54.272c-47.104-54.272-111.616-93.184-185.344-108.544v-74.752c0-18.432-15.36-33.792-33.792-33.792h-67.584c-18.432 0-33.792 15.36-33.792 33.792v74.752c-73.728 15.36-138.24 54.272-185.344 108.544l-94.208-54.272c-16.384-10.24-36.864-4.096-46.080 12.288l-33.792 59.392c-9.216 16.384-4.096 36.864 12.288 46.080l94.208 55.296c-11.264 33.792-18.432 69.632-18.432 107.52s7.168 73.728 18.432 107.52l-94.208 55.296c-16.384 9.216-21.504 30.72-12.288 47.104l33.792 58.368c9.216 16.384 29.696 22.528 46.080 12.288l94.208-54.272c47.104 54.272 111.616 93.184 185.344 108.544v74.752c0 18.432 15.36 33.792 33.792 33.792h67.584c18.432 0 33.792-15.36 33.792-33.792v-74.752c73.728-15.36 138.24-54.272 185.344-108.544l94.208 54.272c16.384 10.24 36.864 4.096 46.080-12.288l33.792-58.368c10.24-16.384 4.096-37.888-12.288-47.104l-94.208-55.296c11.264-33.792 18.432-69.632 18.432-107.52s-7.168-73.728-18.432-107.52l94.208-55.296c16.384-9.216 22.528-29.696 12.288-46.080zM512 619.008c-93.184 0-168.96-76.8-168.96-171.008s75.776-171.008 168.96-171.008c93.184 0 168.96 76.8 168.96 171.008s-75.776 171.008-168.96 171.008zM512 345.6c-56.32 0-101.376 46.080-101.376 102.4s45.056 102.4 101.376 102.4c56.32 0 101.376-46.080 101.376-102.4s-45.056-102.4-101.376-102.4z" />
<glyph unicode="&#xe851;" d="M960.512 768.512h-242.688c11.264 18.432 18.432 39.936 18.432 63.488 0 70.656-57.344 128-128 128-38.912 0-72.704-17.408-96.256-44.032-23.552 26.624-57.344 44.032-96.256 44.032-70.656 0-128-57.344-128-128 0-23.552 7.168-45.056 18.432-63.488h-241.664c-35.84 0-64.512-28.672-64.512-64.512v-63.488c0-35.84 28.672-64.512 64.512-64.512v-512c0-70.656 57.344-128 128-128h640c70.656 0 128 57.344 128 128v512c34.816 0 63.488 28.672 63.488 64.512v63.488c0 35.84-28.672 64.512-63.488 64.512zM608.256 896.512c34.816 0 63.488-28.672 63.488-64.512 0-34.816-28.672-63.488-63.488-63.488s-64.512 28.672-64.512 63.488c0 35.84 28.672 64.512 64.512 64.512zM415.744 896.512c35.84 0 64.512-28.672 64.512-64.512 0-34.816-28.672-63.488-64.512-63.488s-63.488 28.672-63.488 63.488c0 35.84 28.672 64.512 63.488 64.512zM480.256-0.512h-287.744c-35.84 0-64.512 28.672-64.512 64.512v192.512h352.256v-257.024zM480.256 320h-352.256v256h352.256v-256zM896 64c0-35.84-28.672-64.512-63.488-64.512h-288.768v257.024h352.256v-192.512zM896 320h-352.256v256h352.256v-256zM927.744 640.512h-831.488c-17.408 0-31.744 14.336-31.744 31.744s14.336 31.744 31.744 31.744h831.488c18.432 0 32.768-14.336 32.768-31.744s-14.336-31.744-32.768-31.744z" />
<glyph unicode="&#xe852;" d="M512 320c17.408 0 31.744 14.336 31.744 31.744v384c0 18.432-14.336 32.768-31.744 32.768s-31.744-14.336-31.744-32.768v-384c0-17.408 14.336-31.744 31.744-31.744zM704.512 320c17.408 0 31.744 14.336 31.744 31.744v288.768c0 17.408-14.336 31.744-31.744 31.744-18.432 0-32.768-14.336-32.768-31.744v-288.768c0-17.408 14.336-31.744 32.768-31.744zM320.512 320c17.408 0 31.744 14.336 31.744 31.744v128c0 18.432-14.336 32.768-31.744 32.768s-32.768-14.336-32.768-32.768v-128c0-17.408 14.336-31.744 32.768-31.744zM0 960v-63.488h64.512c0-52.224 0-608.256 0-608.256 0-75.776 52.224-128 128-128h191.488l-128-224.256h96.256l128 224.256h63.488l128-224.256h96.256l-128 224.256h192.512c74.752 0 128 52.224 128 128 0 0 0 551.936 0 608.256h63.488v63.488h-1024zM896 288.256c0-39.936-25.6-64.512-63.488-64.512h-640c-38.912 0-64.512 24.576-64.512 64.512 0 0 0 567.296 0 608.256h769.024c0-64.512-1.024-608.256-1.024-608.256z" />
<glyph unicode="&#xe853;" d="M958.464 495.104c0 11.264 2.048 21.504 2.048 32.768 0 238.592-200.704 432.128-448.512 432.128s-447.488-193.536-447.488-432.128c0-11.264 1.024-21.504 1.024-32.768-38.912-21.504-65.536-63.488-65.536-110.592v-192.512c0-70.656 57.344-128 128-128 0 0 128 0 128 0 67.584 3.072 128 59.392 128 128v192.512c0 70.656-57.344 128-128 128 0 0-120.832 0-128 0 0 212.992 172.032 384 384 384s384-156.672 384-384c-7.168 0-128 0-128 0-70.656 0-128-57.344-128-128v-192.512c0-68.608 60.416-124.928 128-128 0 0 64.512 0 64.512 0v-96.256c0-17.408 14.336-31.744 31.744-31.744s31.744 14.336 31.744 31.744v96.256c70.656 0 128 57.344 128 128v192.512c0 47.104-26.624 89.088-65.536 110.592zM216.064 448h39.936c35.84 0 64.512-28.672 64.512-63.488v-192.512c0-34.816-28.672-63.488-64.512-63.488h-27.648c-22.528 52.224-35.84 111.616-35.84 175.104 0 52.224 8.192 100.352 23.552 144.384zM128 448h20.48c-13.312-45.056-20.48-93.184-20.48-144.384 0-62.464 11.264-122.88 30.72-175.104h-30.72c-34.816 0-63.488 28.672-63.488 63.488v192.512c0 34.816 28.672 63.488 63.488 63.488zM795.648 128.512h-27.648c-34.816 0-63.488 28.672-63.488 63.488v192.512c0 34.816 28.672 63.488 63.488 63.488h39.936c15.36-44.032 24.576-92.16 24.576-144.384 0-63.488-14.336-122.88-36.864-175.104zM960.512 192c0-34.816-28.672-63.488-64.512-63.488h-29.696c18.432 52.224 29.696 112.64 29.696 175.104 0 51.2-7.168 99.328-20.48 144.384h20.48c35.84 0 64.512-28.672 64.512-63.488v-192.512z" />
<glyph unicode="&#xe854;" d="M733.184 737.792c-140.288-39.936-165.888-153.6-156.672-225.28-100.352 116.736-96.256 252.928-96.256 447.488-321.536-120.832-246.784-470.016-256-575.488-80.896 65.536-96.256 223.232-96.256 223.232-84.992-44.032-128-160.768-128-256 0-229.376 186.368-415.744 415.744-415.744 230.4 0 416.768 186.368 416.768 415.744 0 137.216-100.352 199.68-99.328 386.048zM432.128-0.512c-203.776 0-367.616 172.032-367.616 364.544 0 45.056 1.024 80.896 31.744 115.712-4.096-19.456 44.032-193.536 201.728-184.32-7.168 132.096-43.008 454.656 122.88 566.272-14.336-175.104 28.672-411.648 220.16-445.44-11.264 70.656-10.24 187.392 39.936 208.896 5.12-107.52 84.992-174.080 84.992-277.504 0-188.416-182.272-348.16-333.824-348.16z" horiz-adv-x="831" />
<glyph unicode="&#xe855;" d="M256 832c-70.656 0-128-57.344-128-128s57.344-128 128-128c70.656 0 128 57.344 128 128s-57.344 128-128 128zM256 640.512c-34.816 0-63.488 28.672-63.488 63.488s28.672 64.512 63.488 64.512 64.512-28.672 64.512-64.512-28.672-63.488-64.512-63.488zM896 960h-768c-70.656 0-128-57.344-128-128v-768c0-70.656 57.344-128 128-128h768c70.656 0 128 57.344 128 128v768c0 70.656-57.344 128-128 128zM128-0.512c-34.816 0-63.488 28.672-63.488 64.512v29.696l253.952 228.352 321.536-322.56h-512zM960.512 64c0-35.84-28.672-64.512-64.512-64.512h-164.864l-236.544 239.616 273.408 273.408 192.512-192.512v-256zM960.512 412.16l-192.512 195.584-318.464-323.584-129.024 132.096-256-234.496v650.24c0 35.84 28.672 64.512 63.488 64.512h768c35.84 0 64.512-28.672 64.512-64.512v-419.84z" />
<glyph unicode="&#xe856;" d="M320.512 960c-99.328-119.808-320.512-527.36-320.512-703.488 0-177.152 143.36-320.512 320.512-320.512 176.128 0 319.488 143.36 319.488 320.512 0 176.128-223.232 586.752-319.488 703.488zM320.512-0.512c-142.336 0-256 112.64-256 250.88s176.128 488.448 256 581.632c76.8-91.136 256-443.392 256-581.632s-114.688-250.88-256-250.88z" horiz-adv-x="640" />
<glyph unicode="&#xe857;" d="M963.584 960h-429.056c-33.792 0-40.96-14.336-72.704-48.128l-422.912-421.888c-52.224-52.224-52.224-135.168 0-187.392l328.704-327.68c52.224-52.224 136.192-52.224 188.416 0l422.912 421.888c26.624 26.624 46.080 39.936 46.080 73.728v428.032c0 33.792-27.648 61.44-61.44 61.44zM508.928 22.016c-26.624-26.624-68.608-26.624-94.208 0l-328.704 327.68c-25.6 25.6-25.6 67.584 0 93.184l47.104 47.104 421.888-421.888-46.080-46.080zM963.584 501.248c0-16.384-15.36-41.984-31.744-58.368l-328.704-327.68-422.912 421.888 328.704 327.68c15.36 15.36 38.912 33.792 56.32 33.792h367.616c17.408 0 30.72-13.312 30.72-30.72v-366.592zM625.664 748.032c-51.2-52.224-51.2-136.192 0-187.392 52.224-52.224 136.192-52.224 188.416 0s52.224 135.168 0 187.392c-52.224 51.2-136.192 51.2-188.416 0zM766.976 606.72c-25.6-25.6-67.584-25.6-94.208 0-25.6 26.624-25.6 68.608 0 94.208 26.624 25.6 68.608 25.6 94.208 0s25.6-67.584 0-94.208z" />
<glyph unicode="&#xe858;" d="M1301.504 960h-833.536c-13.312 1.024-26.624-3.072-36.864-13.312l-417.792-462.848c-9.216-9.216-14.336-22.528-13.312-34.816-1.024-13.312 4.096-25.6 13.312-35.84l417.792-462.848c9.216-9.216 21.504-13.312 32.768-13.312v-1.024h837.632c103.424 0 186.368 82.944 186.368 186.368v651.264c0 103.424-82.944 186.368-186.368 186.368zM1394.688 122.368c0-51.2-40.96-93.184-93.184-93.184h-815.104l-378.88 419.84 377.856 417.792h816.128c52.224 0 93.184-41.984 93.184-93.184v-651.264z" horiz-adv-x="1488" />
<glyph unicode="&#xe859;" d="M1056.768 621.056c-18.432 18.432-48.128 18.432-66.56 0l-106.496-106.496-104.448 103.424c-18.432 18.432-47.104 18.432-65.536 0s-18.432-47.104 0-65.536l104.448-104.448-106.496-105.472c-17.408-18.432-17.408-48.128 0-65.536 18.432-18.432 48.128-18.432 66.56 0l105.472 105.472 104.448-104.448c18.432-18.432 48.128-18.432 66.56 0 17.408 18.432 17.408 47.104 0 65.536l-104.448 104.448 106.496 106.496c18.432 18.432 18.432 48.128 0 66.56zM1303.552 960h-835.584c-13.312 1.024-26.624-3.072-35.84-13.312l-418.816-462.848c-9.216-9.216-14.336-22.528-13.312-34.816-1.024-13.312 4.096-25.6 13.312-35.84l418.816-462.848c8.192-9.216 20.48-13.312 32.768-13.312v-1.024h838.656c102.4 0 186.368 82.944 186.368 186.368v651.264c0 103.424-83.968 186.368-186.368 186.368zM1396.736 122.368c0-51.2-41.984-93.184-93.184-93.184h-816.128l-379.904 419.84 378.88 417.792h817.152c51.2 0 93.184-41.984 93.184-93.184v-651.264z" horiz-adv-x="1490" />
<glyph unicode="&#xe85a;" d="M955.392 960h-819.2c-74.752 0-136.192-61.44-136.192-136.192v-751.616c0-74.752 61.44-136.192 136.192-136.192h819.2c75.776 0 137.216 61.44 137.216 136.192v751.616c0 74.752-61.44 136.192-137.216 136.192zM204.8 4.608h-68.608c-36.864 0-67.584 29.696-67.584 67.584v751.616c0 37.888 30.72 67.584 67.584 67.584h68.608v-886.784zM1024 72.192c0-37.888-30.72-67.584-68.608-67.584h-681.984v886.784h681.984c37.888 0 68.608-29.696 68.608-67.584v-751.616zM921.6 481.792h-418.816l136.192 112.64c13.312 13.312 13.312 35.84 0 49.152s-34.816 13.312-48.128 0l-204.8-168.96c-7.168-7.168-10.24-16.384-9.216-25.6-1.024-10.24 2.048-19.456 9.216-26.624l204.8-167.936c13.312-14.336 34.816-14.336 48.128 0 13.312 13.312 13.312 34.816 0 48.128l-135.168 111.616h417.792c18.432 0 33.792 15.36 33.792 33.792s-15.36 33.792-33.792 33.792z" horiz-adv-x="1092" />
<glyph unicode="&#xe85b;" d="M103.424 448l481.28 439.296c16.384 16.384 16.384 43.008 0 60.416-17.408 16.384-44.032 16.384-61.44 0l-510.976-466.944c-9.216-9.216-13.312-21.504-12.288-32.768-1.024-11.264 3.072-23.552 12.288-32.768l510.976-466.944c17.408-16.384 44.032-16.384 61.44 0 16.384 17.408 16.384 44.032 0 60.416l-481.28 439.296z" horiz-adv-x="596" />
<glyph unicode="&#xe85c;" d="M512 960c-282.624 0-512-229.376-512-512s229.376-512 512-512c282.624 0 512 229.376 512 512s-229.376 512-512 512zM512-0.512c-247.808 0-447.488 200.704-447.488 448.512s199.68 448.512 447.488 448.512 448.512-200.704 448.512-448.512c0-247.808-200.704-448.512-448.512-448.512zM657.408 721.408c-12.288 12.288-32.768 12.288-45.056 0l-245.76-244.736c-7.168-8.192-9.216-18.432-8.192-28.672-1.024-10.24 1.024-20.48 8.192-27.648l245.76-245.76c12.288-12.288 32.768-12.288 45.056 0 12.288 13.312 12.288 32.768 0 45.056l-228.352 228.352 228.352 228.352c12.288 12.288 12.288 32.768 0 45.056z" />
<glyph unicode="&#xe85d;" d="M896 960h-768c-70.656 0-128-57.344-128-128v-768c0-70.656 57.344-128 128-128h768c70.656 0 128 57.344 128 128v768c0 70.656-57.344 128-128 128zM960.512 64c0-35.84-28.672-64.512-64.512-64.512h-768c-34.816 0-63.488 28.672-63.488 64.512v768c0 35.84 28.672 64.512 63.488 64.512h768c35.84 0 64.512-28.672 64.512-64.512v-768zM694.272 758.272c-13.312 12.288-33.792 12.288-46.080 0l-286.72-286.72c-7.168-6.144-10.24-15.36-9.216-23.552-1.024-9.216 2.048-18.432 9.216-24.576l286.72-286.72c12.288-12.288 32.768-12.288 46.080 0 12.288 13.312 12.288 33.792 0 46.080l-266.24 265.216 266.24 264.192c12.288 13.312 12.288 32.768 0 46.080z" />
<glyph unicode="&#xe85e;" d="M39.936 881.152h1024c21.504 0 38.912 17.408 38.912 39.936 0 21.504-17.408 38.912-38.912 38.912h-1024c-22.528 0-39.936-17.408-39.936-38.912 0-22.528 17.408-39.936 39.936-39.936zM39.936 565.76h708.608c21.504 0 38.912 18.432 38.912 39.936s-17.408 38.912-38.912 38.912h-708.608c-22.528 0-39.936-17.408-39.936-38.912s17.408-39.936 39.936-39.936zM629.76 14.848h-589.824c-22.528 0-39.936-17.408-39.936-39.936s17.408-38.912 39.936-38.912h589.824c22.528 0 39.936 17.408 39.936 38.912s-17.408 39.936-39.936 39.936zM1063.936 330.24h-1024c-22.528 0-39.936-18.432-39.936-39.936s17.408-38.912 39.936-38.912h1024c21.504 0 38.912 17.408 38.912 38.912s-17.408 39.936-38.912 39.936z" horiz-adv-x="1102" />
<glyph unicode="&#xe85f;" d="M438.272 702.976v216.064c1.024 11.264-2.048 21.504-10.24 30.72-14.336 14.336-37.888 14.336-52.224 0l-365.568-400.384c-7.168-8.192-10.24-18.432-10.24-28.672 0-9.216 3.072-19.456 10.24-27.648l363.52-398.336c6.144-8.192 16.384-13.312 27.648-13.312 10.24 0 19.456 4.096 26.624 11.264 0 0 0 0 0 0 8.192 8.192 11.264 19.456 10.24 30.72 0 0 0 202.752 0 215.040 241.664 0 459.776-174.080 502.784-402.432 29.696 66.56 46.080 141.312 46.080 219.136 0 303.104-245.76 547.84-548.864 547.84zM475.136 411.136c-23.552 0-110.592 0-110.592 0v-196.608l-279.552 306.176 279.552 307.2v-197.632c0 0 92.16 1.024 110.592 0 258.048-7.168 437.248-301.056 438.272-439.296-78.848 101.376-285.696 220.16-438.272 220.16z" horiz-adv-x="985" />
<glyph unicode="&#xe860;" d="M816.128 960c-113.664 0-198.656-66.56-272.384-136.192-68.608 73.728-158.72 136.192-271.36 136.192-159.744 0-272.384-137.216-272.384-286.72 0-80.896 32.768-138.24 68.608-192.512l422.912-506.88c48.128-50.176 56.32-50.176 104.448 0l423.936 506.88c41.984 54.272 68.608 111.616 68.608 192.512 0 149.504-112.64 286.72-272.384 286.72zM952.32 495.104l-408.576-487.424-407.552 489.472c-49.152 67.584-68.608 113.664-68.608 176.128 0 116.736 83.968 222.208 204.8 223.232 99.328 1.024 210.944-100.352 271.36-177.152 59.392 73.728 173.056 177.152 272.384 177.152 117.76 0 203.776-106.496 203.776-223.232 0-62.464-14.336-111.616-67.584-178.176z" horiz-adv-x="1087" />
<glyph unicode="&#xe861;" d="M228.352 22.016c-26.624-25.6-68.608-25.6-94.208 0l-48.128 48.128c-25.6 25.6-25.6 67.584 0 94.208l318.464 317.44c-45.056 12.288-94.208 1.024-129.024-33.792l-236.544-236.544c-52.224-52.224-52.224-137.216 0-189.44l47.104-47.104c52.224-52.224 137.216-52.224 189.44 0l236.544 236.544c34.816 34.816 46.080 83.968 33.792 129.024l-317.44-318.464zM985.088 873.984l-47.104 47.104c-52.224 52.224-137.216 52.224-189.44 0l-236.544-236.544c-34.816-34.816-46.080-83.968-33.792-129.024l317.44 318.464c26.624 25.6 68.608 25.6 94.208 0l48.128-48.128c25.6-25.6 25.6-67.584 0-94.208l-318.464-317.44c45.056-12.288 94.208-1.024 129.024 33.792l236.544 236.544c52.224 52.224 52.224 137.216 0 189.44zM618.496 553.472c-13.312 13.312-33.792 13.312-47.104 0l-165.888-164.864c-13.312-13.312-13.312-34.816 0-47.104 13.312-13.312 34.816-13.312 47.104 0l165.888 164.864c13.312 13.312 13.312 34.816 0 47.104z" />
<glyph unicode="&#xe862;" d="M57.344 505.344c-31.744 0-57.344-25.6-57.344-57.344s25.6-57.344 57.344-57.344c30.72 0 56.32 25.6 56.32 57.344s-25.6 57.344-56.32 57.344zM57.344 49.664c-31.744 0-57.344-25.6-57.344-56.32 0-31.744 25.6-57.344 57.344-57.344 30.72 0 56.32 25.6 56.32 57.344 0 30.72-25.6 56.32-56.32 56.32zM398.336 846.336h1137.664c31.744 0 57.344 25.6 57.344 56.32s-25.6 57.344-57.344 57.344h-1137.664c-31.744 0-57.344-25.6-57.344-57.344s25.6-56.32 57.344-56.32zM57.344 960c-31.744 0-57.344-25.6-57.344-57.344s25.6-56.32 57.344-56.32c30.72 0 56.32 25.6 56.32 56.32s-25.6 57.344-56.32 57.344zM1536 49.664h-1137.664c-31.744 0-57.344-25.6-57.344-56.32 0-31.744 25.6-57.344 57.344-57.344h1137.664c31.744 0 57.344 25.6 57.344 57.344 0 30.72-25.6 56.32-57.344 56.32zM1536 505.344h-1137.664c-31.744 0-57.344-25.6-57.344-57.344s25.6-57.344 57.344-57.344h1137.664c31.744 0 57.344 25.6 57.344 57.344s-25.6 57.344-57.344 57.344z" horiz-adv-x="1591" />
<glyph unicode="&#xe863;" d="M102.4 140.8c-56.32 0-102.4-46.080-102.4-102.4s46.080-102.4 102.4-102.4c56.32 0 102.4 46.080 102.4 102.4s-46.080 102.4-102.4 102.4zM460.8 806.4h921.6c28.672 0 51.2 22.528 51.2 51.2s-22.528 51.2-51.2 51.2h-921.6c-28.672 0-51.2-22.528-51.2-51.2s22.528-51.2 51.2-51.2zM102.4 550.4c-56.32 0-102.4-46.080-102.4-102.4s46.080-102.4 102.4-102.4c56.32 0 102.4 46.080 102.4 102.4s-46.080 102.4-102.4 102.4zM1382.4 499.2h-921.6c-28.672 0-51.2-22.528-51.2-51.2s22.528-51.2 51.2-51.2h921.6c28.672 0 51.2 22.528 51.2 51.2s-22.528 51.2-51.2 51.2zM1382.4 89.6h-921.6c-28.672 0-51.2-22.528-51.2-51.2s22.528-51.2 51.2-51.2h921.6c28.672 0 51.2 22.528 51.2 51.2s-22.528 51.2-51.2 51.2zM102.4 960c-56.32 0-102.4-46.080-102.4-102.4s46.080-102.4 102.4-102.4c56.32 0 102.4 46.080 102.4 102.4s-46.080 102.4-102.4 102.4z" horiz-adv-x="1434" />
<glyph unicode="&#xe864;" d="M320.512 320c-18.432 0-32.768-14.336-32.768-31.744v-128c0-17.408 14.336-31.744 32.768-31.744 17.408 0 31.744 14.336 31.744 31.744v128c0 17.408-14.336 31.744-31.744 31.744zM576.512 446.976v257.024c0 141.312-114.688 256-256 256s-256-114.688-256-256v-257.024c-40.96-53.248-64.512-118.784-64.512-190.464 0-177.152 143.36-320.512 320.512-320.512 176.128 0 319.488 143.36 319.488 320.512 0 71.68-23.552 137.216-63.488 190.464zM128 704c0 106.496 86.016 192.512 192.512 192.512 105.472 0 191.488-86.016 191.488-192.512v-192.512c-53.248 39.936-119.808 64.512-191.488 64.512-72.704 0-139.264-24.576-192.512-64.512v192.512zM320.512-0.512c-142.336 0-256 114.688-256 257.024 0 141.312 113.664 256 256 256 136.192 0 256-119.808 256-256 0-142.336-114.688-257.024-256-257.024z" horiz-adv-x="640" />
<glyph unicode="&#xe865;" d="M633.856 219.648c-14.336-14.336-14.336-36.864 0-51.2s37.888-14.336 52.224 0l251.904 251.904c8.192 7.168 11.264 17.408 10.24 27.648 1.024 10.24-2.048 20.48-10.24 27.648l-251.904 252.928c-14.336 13.312-37.888 13.312-52.224 0-14.336-14.336-14.336-37.888 0-52.224l192.512-191.488h-789.504c-20.48 0-36.864-16.384-36.864-36.864s16.384-36.864 36.864-36.864h789.504l-192.512-191.488zM1024 960h-731.136c-80.896 0-146.432-65.536-146.432-146.432v-146.432h72.704v146.432c0 40.96 32.768 73.728 73.728 73.728h731.136c40.96 0 72.704-32.768 72.704-73.728v-731.136c0-40.96-31.744-73.728-72.704-73.728h-731.136c-40.96 0-73.728 32.768-73.728 73.728v146.432h-72.704v-146.432c0-80.896 65.536-146.432 146.432-146.432h731.136c80.896 0 146.432 65.536 146.432 146.432v731.136c0 80.896-65.536 146.432-146.432 146.432z" horiz-adv-x="1169" />
<glyph unicode="&#xe866;" d="M951.296 82.432c0-40.96-32.768-73.728-73.728-73.728h-731.136c-40.96 0-73.728 32.768-73.728 73.728v731.136c0 40.96 32.768 73.728 73.728 73.728h731.136c40.96 0 73.728-32.768 73.728-73.728v-109.568h72.704v109.568c0 80.896-65.536 146.432-146.432 146.432h-731.136c-80.896 0-146.432-65.536-146.432-146.432v-731.136c0-80.896 65.536-146.432 146.432-146.432h731.136c80.896 0 146.432 65.536 146.432 146.432v109.568h-72.704v-109.568zM1133.568 484.864h-789.504l192.512 191.488c13.312 14.336 13.312 37.888 0 52.224-14.336 13.312-37.888 13.312-52.224 0l-251.904-252.928c-8.192-7.168-11.264-17.408-11.264-27.648s3.072-20.48 11.264-27.648l251.904-251.904c14.336-14.336 37.888-14.336 51.2 0 14.336 14.336 14.336 36.864 0 51.2l-191.488 191.488h789.504c20.48 0 36.864 16.384 36.864 36.864s-16.384 36.864-36.864 36.864z" horiz-adv-x="1169" />
<glyph unicode="&#xe867;" d="M287.744 640.512c-17.408 0-31.744-14.336-31.744-32.768v-319.488c0-17.408 14.336-31.744 31.744-31.744 18.432 0 32.768 14.336 32.768 31.744v319.488c0 18.432-14.336 32.768-32.768 32.768zM543.744 544.256c-17.408 0-31.744-14.336-31.744-31.744v-192.512c0-17.408 14.336-31.744 31.744-31.744 18.432 0 32.768 14.336 32.768 31.744v192.512c0 17.408-14.336 31.744-32.768 31.744zM768 416.256c0-17.408 14.336-31.744 31.744-31.744 18.432 0 32.768 14.336 32.768 31.744v256c0 17.408-14.336 31.744-32.768 31.744-17.408 0-31.744-14.336-31.744-31.744v-256zM768 960l-256-191.488-256 95.232-256-159.744v-768l256 159.744 256-96.256 256 192.512 256-192.512v769.024l-256 191.488zM960.512 112.128l-192.512 144.384-256-192.512-256 96.256-191.488-119.808v640l191.488 119.808 256-96.256 256 192.512 192.512-144.384v-640z" />
<glyph unicode="&#xe868;" d="M1024 960l-307.2-204.8h-443.392c-151.552 0-273.408-88.064-273.408-238.592 0-128 87.040-217.088 204.8-239.616 2.048-9.216 0-272.384 0-272.384 0-37.888 30.72-68.608 68.608-68.608h102.4c37.888 0 67.584 30.72 67.584 68.608v272.384h273.408l307.2-204.8c37.888 0 68.608 30.72 68.608 68.608v750.592c0 37.888-30.72 68.608-68.608 68.608zM375.808 38.4c0-18.432-15.36-33.792-34.816-33.792h-33.792c-18.432 0-33.792 15.36-33.792 33.792v238.592c0 0 84.992 0 102.4 0v-238.592zM545.792 345.6h-272.384c-68.608 0-204.8 19.456-204.8 171.008s134.144 173.056 204.8 169.984h272.384v-340.992zM716.8 345.6h-102.4v340.992h102.4c0 0 0-304.128 0-340.992zM1024 140.8l-238.592 171.008v409.6l238.592 169.984v-750.592z" horiz-adv-x="1092" />
<glyph unicode="&#xe869;" d="M1081.344 49.664h-1024c-31.744 0-57.344-25.6-57.344-56.32 0-31.744 25.6-57.344 57.344-57.344h1024c30.72 0 56.32 25.6 56.32 57.344 0 30.72-25.6 56.32-56.32 56.32zM57.344 846.336h1024c30.72 0 56.32 25.6 56.32 56.32 0 31.744-25.6 57.344-56.32 57.344h-1024c-31.744 0-57.344-25.6-57.344-57.344 0-30.72 25.6-56.32 57.344-56.32zM1081.344 505.344h-1024c-31.744 0-57.344-25.6-57.344-57.344s25.6-57.344 57.344-57.344h1024c30.72 0 56.32 25.6 56.32 57.344s-25.6 57.344-56.32 57.344z" horiz-adv-x="1138" />
<glyph unicode="&#xe86a;" d="M146.432 667.136h877.568c80.896 0 146.432 65.536 146.432 146.432s-65.536 146.432-146.432 146.432h-877.568c-80.896 0-146.432-65.536-146.432-146.432s65.536-146.432 146.432-146.432zM146.432 887.296h877.568c40.96 0 72.704-32.768 72.704-73.728 0-39.936-31.744-72.704-72.704-72.704h-877.568c-40.96 0-73.728 32.768-73.728 72.704 0 40.96 32.768 73.728 73.728 73.728zM1024 228.864h-877.568c-80.896 0-146.432-65.536-146.432-146.432s65.536-146.432 146.432-146.432h877.568c80.896 0 146.432 65.536 146.432 146.432s-65.536 146.432-146.432 146.432zM1024 8.704h-877.568c-40.96 0-73.728 32.768-73.728 73.728 0 39.936 32.768 72.704 73.728 72.704h877.568c40.96 0 72.704-32.768 72.704-72.704 0-40.96-31.744-73.728-72.704-73.728zM1024 594.432h-877.568c-80.896 0-146.432-65.536-146.432-146.432s65.536-146.432 146.432-146.432h877.568c80.896 0 146.432 65.536 146.432 146.432s-65.536 146.432-146.432 146.432zM1024 375.296h-877.568c-40.96 0-73.728 32.768-73.728 72.704s32.768 72.704 73.728 72.704h877.568c40.96 0 72.704-31.744 72.704-72.704 0-39.936-31.744-72.704-72.704-72.704z" horiz-adv-x="1169" />
<glyph unicode="&#xe86b;" d="M896 960h-768c-70.656 0-128-62.464-128-133.12v-763.904c0-69.632 57.344-126.976 126.976-126.976h762.88c70.656 0 134.144 57.344 134.144 128v768c0 70.656-57.344 128-128 128zM960.512 64c0-34.816-34.816-64.512-70.656-64.512h-762.88c-34.816 0-63.488 28.672-63.488 63.488v763.904c0 34.816 29.696 69.632 64.512 69.632h768c34.816 0 64.512-29.696 64.512-64.512v-768zM768 320h-512c-17.408 0-31.744-14.336-31.744-31.744s14.336-31.744 31.744-31.744h512c17.408 0 31.744 14.336 31.744 31.744s-14.336 31.744-31.744 31.744zM768 512.512h-512c-17.408 0-31.744-14.336-31.744-32.768 0-17.408 14.336-31.744 31.744-31.744h512c17.408 0 31.744 14.336 31.744 31.744 0 18.432-14.336 32.768-31.744 32.768zM768 704h-512c-17.408 0-31.744-14.336-31.744-31.744s14.336-31.744 31.744-31.744h512c17.408 0 31.744 14.336 31.744 31.744s-14.336 31.744-31.744 31.744z" />
<glyph unicode="&#xe86c;" d="M704.512 351.744h-64.512c-28.672-128-150.528-223.232-287.744-223.232s-259.072 95.232-287.744 223.232h-64.512c28.672-153.6 161.792-272.384 320.512-286.72v-65.536h-32.768c-17.408 0-31.744-14.336-31.744-31.744s14.336-31.744 31.744-31.744h128c18.432 0 32.768 14.336 32.768 31.744s-14.336 31.744-32.768 31.744h-31.744v65.536c157.696 14.336 291.84 133.12 320.512 286.72zM352.256 192c123.904 0 224.256 100.352 224.256 224.256v319.488c0 123.904-100.352 224.256-224.256 224.256s-224.256-100.352-224.256-224.256v-319.488c0-123.904 100.352-224.256 224.256-224.256zM192.512 735.744c0 89.088 71.68 160.768 159.744 160.768s159.744-71.68 159.744-160.768v-319.488c0-88.064-71.68-159.744-159.744-159.744s-159.744 71.68-159.744 159.744v319.488z" horiz-adv-x="703" />
<glyph unicode="&#xe86d;" d="M665.6 730.624c-30.72 131.072-158.72 229.376-313.344 229.376s-283.648-98.304-313.344-229.376c-22.528-9.216-38.912-31.744-38.912-58.368v-64.512c0-34.816 28.672-63.488 64.512-63.488h1.024c22.528-40.96 55.296-75.776 95.232-102.4l63.488-442.368c0-34.816 28.672-63.488 63.488-63.488h128c35.84 0 64.512 28.672 64.512 63.488l62.464 442.368c39.936 26.624 72.704 61.44 95.232 102.4h2.048c35.84 0 64.512 28.672 64.512 63.488v64.512c0 26.624-16.384 49.152-38.912 58.368zM352.256 896.512c115.712 0 214.016-67.584 244.736-160.768h-490.496c31.744 93.184 130.048 160.768 245.76 160.768zM415.744 64c-7.168-32.768-8.192-64.512-31.744-64.512h-63.488c-23.552 0-23.552 32.768-32.768 64.512l-60.416 343.040c37.888-15.36 79.872-22.528 124.928-22.528 44.032 0 86.016 8.192 124.928 22.528l-61.44-343.040zM352.256 448c-87.040 0-163.84 37.888-209.92 96.256h419.84c-46.080-58.368-122.88-96.256-209.92-96.256zM608.256 607.744h-512c-17.408 0-31.744 14.336-31.744 32.768 0 17.408 14.336 31.744 31.744 31.744h512c17.408 0 31.744-14.336 31.744-31.744 0-18.432-14.336-32.768-31.744-32.768z" horiz-adv-x="703" />
<glyph unicode="&#xe86e;" d="M512 960c-282.624 0-512-229.376-512-512s229.376-512 512-512c282.624 0 512 229.376 512 512s-229.376 512-512 512zM512-0.512c-247.808 0-447.488 200.704-447.488 448.512s199.68 448.512 447.488 448.512c247.808 0 448.512-200.704 448.512-448.512s-200.704-448.512-448.512-448.512zM704.512 479.744h-384c-18.432 0-32.768-14.336-32.768-31.744s14.336-31.744 32.768-31.744h384c17.408 0 31.744 14.336 31.744 31.744s-14.336 31.744-31.744 31.744z" />
<glyph unicode="&#xe86f;" d="M704.512 479.744h-384c-18.432 0-32.768-14.336-32.768-31.744s14.336-31.744 32.768-31.744h384c17.408 0 31.744 14.336 31.744 31.744s-14.336 31.744-31.744 31.744zM896 960h-768c-70.656 0-128-57.344-128-128v-768c0-70.656 57.344-128 128-128h768c70.656 0 128 57.344 128 128v768c0 70.656-57.344 128-128 128zM960.512 64c0-35.84-28.672-64.512-64.512-64.512h-768c-34.816 0-63.488 28.672-63.488 64.512v768c0 35.84 28.672 64.512 63.488 64.512h768c35.84 0 64.512-28.672 64.512-64.512v-768z" />
<glyph unicode="&#xe870;" d="M598.016 562.688h-321.536c-17.408 0-30.72-13.312-30.72-30.72s13.312-30.72 30.72-30.72h321.536c17.408 0 31.744 13.312 31.744 30.72s-14.336 30.72-31.744 30.72zM1014.784-8.704l-265.216 261.12c69.632 74.752 112.64 174.080 112.64 283.648 0 234.496-193.536 423.936-431.104 423.936s-431.104-189.44-431.104-423.936 192.512-423.936 431.104-423.936c102.4 0 196.608 35.84 271.36 94.208l265.216-261.12c12.288-12.288 33.792-12.288 47.104 0 12.288 13.312 12.288 33.792 0 46.080zM431.104 177.664c-201.728 0-364.544 160.768-364.544 358.4s162.816 358.4 364.544 358.4c200.704 0 364.544-160.768 364.544-358.4s-163.84-358.4-364.544-358.4z" />
<glyph unicode="&#xe871;" d="M692.224 547.328h-592.896c-55.296 0-99.328-45.056-99.328-99.328s44.032-99.328 99.328-99.328h592.896c55.296 0 99.328 45.056 99.328 99.328s-44.032 99.328-99.328 99.328zM692.224 398.848h-592.896c-27.648 0-50.176 21.504-50.176 49.152s22.528 49.152 50.176 49.152h592.896c27.648 0 49.152-21.504 49.152-49.152s-21.504-49.152-49.152-49.152z" horiz-adv-x="792" />
<glyph unicode="&#xe872;" d="M864.256 960h-736.256c-70.656 0-128-57.344-128-128v-575.488c0-70.656 57.344-128 128-128h256v-129.024h-63.488c-18.432 0-32.768-14.336-32.768-31.744s14.336-31.744 32.768-31.744h384c17.408 0 31.744 14.336 31.744 31.744s-14.336 31.744-31.744 31.744h-64.512v129.024h224.256c70.656 0 128 57.344 128 128v575.488c0 70.656-57.344 128-128 128zM576.512-0.512h-128v129.024h128v-129.024zM927.744 256.512c0-35.84-28.672-64.512-63.488-64.512h-736.256c-34.816 0-63.488 28.672-63.488 64.512v63.488h863.232v-63.488zM927.744 384.512h-863.232v447.488c0 35.84 28.672 64.512 63.488 64.512h736.256c34.816 0 63.488-28.672 63.488-64.512v-447.488z" horiz-adv-x="991" />
<glyph unicode="&#xe873;" d="M927.744-0.512h-831.488c-17.408 0-31.744-14.336-31.744-31.744s14.336-31.744 31.744-31.744h831.488c18.432 0 32.768 14.336 32.768 31.744s-14.336 31.744-32.768 31.744zM864.256 832l-415.744-63.488c-18.432 0-32.768-14.336-32.768-32.768v-270.336c-49.152 22.528-118.784 18.432-182.272-15.36-89.088-48.128-130.048-139.264-91.136-201.728 38.912-63.488 152.576-72.704 241.664-24.576 69.632 37.888 100.352 104.448 96.256 160.768 0 1.024 0 324.608 0 324.608l352.256 54.272v-234.496c-50.176 23.552-119.808 19.456-182.272-14.336-89.088-49.152-131.072-139.264-92.16-202.752 38.912-62.464 152.576-72.704 241.664-23.552 69.632 37.888 100.352 103.424 96.256 159.744 0 2.048 0 352.256 0 352.256 0 17.408-14.336 31.744-31.744 31.744zM355.328 274.944c-55.296-31.744-124.928-26.624-151.552 6.144-26.624 33.792-3.072 83.968 54.272 113.664 56.32 29.696 107.52 29.696 140.288 4.096 39.936-31.744 6.144-96.256-43.008-123.904zM772.096 339.456c-56.32-31.744-124.928-27.648-152.576 5.12-26.624 33.792-3.072 83.968 54.272 114.688 56.32 29.696 106.496 27.648 140.288 4.096 43.008-30.72 8.192-95.232-41.984-123.904zM896 960h-768c-70.656 0-128-57.344-128-128v-640c0-70.656 57.344-128 128-128h768c70.656 0 128 57.344 128 128v640c0 70.656-57.344 128-128 128zM960.512 192c0-34.816-28.672-63.488-64.512-63.488h-768c-34.816 0-63.488 28.672-63.488 63.488v640c0 35.84 28.672 64.512 63.488 64.512h768c35.84 0 64.512-28.672 64.512-64.512v-640z" />
</font>
</defs>
</svg>
